mtllib ParkingLot4.mtl
# Minecramps Model Editor generated obj
# www.davididev.com
# ----Generated Normals----
# ----Model----
o PLATFORM1
v -5 1 -3
v -5 1 -2
v -5 1 -1
v -5 1 0
v -5 1 1
v -5 1 2
v -4 1 -3
v -4 1 -2
v -4 1 -1
v -4 1 0
v -4 1 1
v -4 1 2
v -3 1 -3
v -3 1 -2
v -3 1 -1
v -3 1 0
v -3 1 1
v -3 1 2
v -2 1 -3
v -2 1 -2
v -2 1 -1
v -2 1 0
v -2 1 1
v -2 1 2
v -1 1 -3
v -1 1 -2
v -1 1 -1
v -1 1 0
v -1 1 1
v -1 1 2
v 0 1 -3
v 0 1 -2
v 0 1 -1
v 0 1 0
v 0 1 1
v 0 1 2
v 1 1 -3
v 1 1 -2
v 1 1 -1
v 1 1 0
v 1 1 1
v 1 1 2
v 2 1 -3
v 2 1 -2
v 2 1 -1
v 2 1 0
v 2 1 1
v 2 1 2
v 3 1 -3
v 3 1 -2
v 3 1 -1
v 3 1 0
v 3 1 1
v 3 1 2
v 4 1 -3
v 4 1 -2
v 4 1 -1
v 4 1 0
v 4 1 1
v 4 1 2
v 5 1 -3
v 5 1 -2
v 5 1 -1
v 5 1 0
v 5 1 1
v 5 1 2
usemtl M_City_Road_Voxel_png
vt 0.125 1
vt 0.25 1
vt 0.125 0.875
vt 0.25 0.875
vn 0 -1 0
vn 0 1 0
f 5/3/2 6/1/2 12/2/2 11/4/2
f 11/3/2 12/1/2 18/2/2 17/4/2
f 17/3/2 18/1/2 24/2/2 23/4/2
f 23/3/2 24/1/2 30/2/2 29/4/2
f 29/3/2 30/1/2 36/2/2 35/4/2
f 35/3/2 36/1/2 42/2/2 41/4/2
f 41/3/2 42/1/2 48/2/2 47/4/2
f 47/3/2 48/1/2 54/2/2 53/4/2
f 53/3/2 54/1/2 60/2/2 59/4/2
f 59/3/2 60/1/2 66/2/2 65/4/2
f 4/3/2 5/1/2 11/2/2 10/4/2
f 10/3/2 11/1/2 17/2/2 16/4/2
f 16/3/2 17/1/2 23/2/2 22/4/2
f 22/3/2 23/1/2 29/2/2 28/4/2
f 28/3/2 29/1/2 35/2/2 34/4/2
f 34/3/2 35/1/2 41/2/2 40/4/2
f 40/3/2 41/1/2 47/2/2 46/4/2
f 46/3/2 47/1/2 53/2/2 52/4/2
f 52/3/2 53/1/2 59/2/2 58/4/2
f 58/3/2 59/1/2 65/2/2 64/4/2
vt 0.75 1
vt 0.875 1
vt 0.75 0.875
vt 0.875 0.875
f 3/7/2 4/5/2 10/6/2 9/8/2
f 9/3/2 10/1/2 16/2/2 15/4/2
f 15/3/2 16/1/2 22/2/2 21/4/2
f 21/7/2 22/5/2 28/6/2 27/8/2
f 27/3/2 28/1/2 34/2/2 33/4/2
f 33/3/2 34/1/2 40/2/2 39/4/2
f 39/7/2 40/5/2 46/6/2 45/8/2
f 45/3/2 46/1/2 52/2/2 51/4/2
f 51/3/2 52/1/2 58/2/2 57/4/2
f 57/3/2 58/1/2 64/2/2 63/4/2
f 2/7/2 3/5/2 9/6/2 8/8/2
f 8/3/2 9/1/2 15/2/2 14/4/2
f 14/3/2 15/1/2 21/2/2 20/4/2
f 20/7/2 21/5/2 27/6/2 26/8/2
f 26/3/2 27/1/2 33/2/2 32/4/2
f 32/3/2 33/1/2 39/2/2 38/4/2
f 38/7/2 39/5/2 45/6/2 44/8/2
f 44/3/2 45/1/2 51/2/2 50/4/2
f 50/3/2 51/1/2 57/2/2 56/4/2
f 56/3/2 57/1/2 63/2/2 62/4/2
f 1/7/2 2/5/2 8/6/2 7/8/2
f 7/3/2 8/1/2 14/2/2 13/4/2
f 13/3/2 14/1/2 20/2/2 19/4/2
f 19/7/2 20/5/2 26/6/2 25/8/2
f 25/3/2 26/1/2 32/2/2 31/4/2
f 31/3/2 32/1/2 38/2/2 37/4/2
f 37/7/2 38/5/2 44/6/2 43/8/2
f 43/3/2 44/1/2 50/2/2 49/4/2
f 49/3/2 50/1/2 56/2/2 55/4/2
f 55/3/2 56/1/2 62/2/2 61/4/2
v -5 0 -3
v -5 0 -2
v -5 0 -1
v -5 0 0
v -5 0 1
v -5 0 2
v -4 0 -3
v -4 0 -2
v -4 0 -1
v -4 0 0
v -4 0 1
v -4 0 2
v -3 0 -3
v -3 0 -2
v -3 0 -1
v -3 0 0
v -3 0 1
v -3 0 2
v -2 0 -3
v -2 0 -2
v -2 0 -1
v -2 0 0
v -2 0 1
v -2 0 2
v -1 0 -3
v -1 0 -2
v -1 0 -1
v -1 0 0
v -1 0 1
v -1 0 2
v 0 0 -3
v 0 0 -2
v 0 0 -1
v 0 0 0
v 0 0 1
v 0 0 2
v 1 0 -3
v 1 0 -2
v 1 0 -1
v 1 0 0
v 1 0 1
v 1 0 2
v 2 0 -3
v 2 0 -2
v 2 0 -1
v 2 0 0
v 2 0 1
v 2 0 2
v 3 0 -3
v 3 0 -2
v 3 0 -1
v 3 0 0
v 3 0 1
v 3 0 2
v 4 0 -3
v 4 0 -2
v 4 0 -1
v 4 0 0
v 4 0 1
v 4 0 2
v 5 0 -3
v 5 0 -2
v 5 0 -1
v 5 0 0
v 5 0 1
v 5 0 2
usemtl M_City_Road_Voxel_png
vt 0 1
vt 0 0.875
f 77/3/1 78/1/1 72/9/1 71/10/1
f 83/3/1 84/1/1 78/9/1 77/10/1
f 89/3/1 90/1/1 84/9/1 83/10/1
f 95/3/1 96/1/1 90/9/1 89/10/1
f 101/3/1 102/1/1 96/9/1 95/10/1
f 107/3/1 108/1/1 102/9/1 101/10/1
f 113/3/1 114/1/1 108/9/1 107/10/1
f 119/3/1 120/1/1 114/9/1 113/10/1
f 125/3/1 126/1/1 120/9/1 119/10/1
f 131/3/1 132/1/1 126/9/1 125/10/1
f 76/3/1 77/1/1 71/9/1 70/10/1
f 82/3/1 83/1/1 77/9/1 76/10/1
f 88/3/1 89/1/1 83/9/1 82/10/1
f 94/3/1 95/1/1 89/9/1 88/10/1
f 100/3/1 101/1/1 95/9/1 94/10/1
f 106/3/1 107/1/1 101/9/1 100/10/1
f 112/3/1 113/1/1 107/9/1 106/10/1
f 118/3/1 119/1/1 113/9/1 112/10/1
f 124/3/1 125/1/1 119/9/1 118/10/1
f 130/3/1 131/1/1 125/9/1 124/10/1
f 75/3/1 76/1/1 70/9/1 69/10/1
f 81/3/1 82/1/1 76/9/1 75/10/1
f 87/3/1 88/1/1 82/9/1 81/10/1
f 93/3/1 94/1/1 88/9/1 87/10/1
f 99/3/1 100/1/1 94/9/1 93/10/1
f 105/3/1 106/1/1 100/9/1 99/10/1
f 111/3/1 112/1/1 106/9/1 105/10/1
f 117/3/1 118/1/1 112/9/1 111/10/1
f 123/3/1 124/1/1 118/9/1 117/10/1
f 129/3/1 130/1/1 124/9/1 123/10/1
f 74/3/1 75/1/1 69/9/1 68/10/1
f 80/3/1 81/1/1 75/9/1 74/10/1
f 86/3/1 87/1/1 81/9/1 80/10/1
f 92/3/1 93/1/1 87/9/1 86/10/1
f 98/3/1 99/1/1 93/9/1 92/10/1
f 104/3/1 105/1/1 99/9/1 98/10/1
f 110/3/1 111/1/1 105/9/1 104/10/1
f 116/3/1 117/1/1 111/9/1 110/10/1
f 122/3/1 123/1/1 117/9/1 116/10/1
f 128/3/1 129/1/1 123/9/1 122/10/1
f 73/3/1 74/1/1 68/9/1 67/10/1
f 79/3/1 80/1/1 74/9/1 73/10/1
f 85/3/1 86/1/1 80/9/1 79/10/1
f 91/3/1 92/1/1 86/9/1 85/10/1
f 97/3/1 98/1/1 92/9/1 91/10/1
f 103/3/1 104/1/1 98/9/1 97/10/1
f 109/3/1 110/1/1 104/9/1 103/10/1
f 115/3/1 116/1/1 110/9/1 109/10/1
f 121/3/1 122/1/1 116/9/1 115/10/1
f 127/3/1 128/1/1 122/9/1 121/10/1
v -5 1 -3
v -5 0 -3
v -4 1 -3
v -4 0 -3
v -3 1 -3
v -3 0 -3
v -2 1 -3
v -2 0 -3
v -1 1 -3
v -1 0 -3
v 0 1 -3
v 0 0 -3
v 1 1 -3
v 1 0 -3
v 2 1 -3
v 2 0 -3
v 3 1 -3
v 3 0 -3
v 4 1 -3
v 4 0 -3
v 5 1 -3
v 5 0 -3
usemtl M_City_Road_Voxel_png
vt 0.5 1
vt 0.625 1
vt 0.5 0.875
vt 0.625 0.875
vn 0 0 -1
vn 0 0 1
f 135/12/3 136/14/3 134/13/3 133/11/3
f 137/12/3 138/14/3 136/13/3 135/11/3
f 139/12/3 140/14/3 138/13/3 137/11/3
f 141/12/3 142/14/3 140/13/3 139/11/3
f 143/12/3 144/14/3 142/13/3 141/11/3
f 145/12/3 146/14/3 144/13/3 143/11/3
f 147/12/3 148/14/3 146/13/3 145/11/3
f 149/12/3 150/14/3 148/13/3 147/11/3
f 151/12/3 152/14/3 150/13/3 149/11/3
f 153/12/3 154/14/3 152/13/3 151/11/3
v -5 1 2
v -5 0 2
v -4 1 2
v -4 0 2
v -3 1 2
v -3 0 2
v -2 1 2
v -2 0 2
v -1 1 2
v -1 0 2
v 0 1 2
v 0 0 2
v 1 1 2
v 1 0 2
v 2 1 2
v 2 0 2
v 3 1 2
v 3 0 2
v 4 1 2
v 4 0 2
v 5 1 2
v 5 0 2
usemtl M_City_Road_Voxel_png
f 155/11/4 156/13/4 158/14/4 157/12/4
f 157/11/4 158/13/4 160/14/4 159/12/4
f 159/11/4 160/13/4 162/14/4 161/12/4
f 161/11/4 162/13/4 164/14/4 163/12/4
f 163/11/4 164/13/4 166/14/4 165/12/4
f 165/11/4 166/13/4 168/14/4 167/12/4
f 167/11/4 168/13/4 170/14/4 169/12/4
f 169/11/4 170/13/4 172/14/4 171/12/4
f 171/11/4 172/13/4 174/14/4 173/12/4
f 173/11/4 174/13/4 176/14/4 175/12/4
v -5 1 2
v -5 0 2
v -5 1 1
v -5 0 1
v -5 1 0
v -5 0 0
v -5 1 -1
v -5 0 -1
v -5 1 -2
v -5 0 -2
v -5 1 -3
v -5 0 -3
usemtl M_City_Road_Voxel_png
vn -1 0 0
vn 1 0 0
f 179/12/5 180/14/5 178/13/5 177/11/5
f 181/12/5 182/14/5 180/13/5 179/11/5
f 183/12/5 184/14/5 182/13/5 181/11/5
f 185/12/5 186/14/5 184/13/5 183/11/5
f 187/12/5 188/14/5 186/13/5 185/11/5
v 5 1 2
v 5 0 2
v 5 1 1
v 5 0 1
v 5 1 0
v 5 0 0
v 5 1 -1
v 5 0 -1
v 5 1 -2
v 5 0 -2
v 5 1 -3
v 5 0 -3
usemtl M_City_Road_Voxel_png
f 189/11/6 190/13/6 192/14/6 191/12/6
f 191/11/6 192/13/6 194/14/6 193/12/6
f 193/11/6 194/13/6 196/14/6 195/12/6
f 195/11/6 196/13/6 198/14/6 197/12/6
f 197/11/6 198/13/6 200/14/6 199/12/6
