mtllib ParkingLot3.mtl
# Minecramps Model Editor generated obj
# www.davididev.com
# ----Generated Normals----
# ----Model----
o PLATFORM1
v -5 1 -3
v -5 1 -2
v -5 1 -1
v -5 1 0
v -5 1 1
v -5 1 2
v -4 1 -3
v -4 1 -2
v -4 1 -1
v -4 1 0
v -4 1 1
v -4 1 2
v -3 1 -3
v -3 1 -2
v -3 1 -1
v -3 1 0
v -3 1 1
v -3 1 2
v -2 1 -3
v -2 1 -2
v -2 1 -1
v -2 1 0
v -2 1 1
v -2 1 2
v -1 1 -3
v -1 1 -2
v -1 1 -1
v -1 1 0
v -1 1 1
v -1 1 2
v 0 1 -3
v 0 1 -2
v 0 1 -1
v 0 1 0
v 0 1 1
v 0 1 2
v 1 1 -3
v 1 1 -2
v 1 1 -1
v 1 1 0
v 1 1 1
v 1 1 2
v 2 1 -3
v 2 1 -2
v 2 1 -1
v 2 1 0
v 2 1 1
v 2 1 2
v 3 1 -3
v 3 1 -2
v 3 1 -1
v 3 1 0
v 3 1 1
v 3 1 2
v 4 1 -3
v 4 1 -2
v 4 1 -1
v 4 1 0
v 4 1 1
v 4 1 2
v 5 1 -3
v 5 1 -2
v 5 1 -1
v 5 1 0
v 5 1 1
v 5 1 2
usemtl M_City_Road_Voxel_png
vt 0.125 1
vt 0.25 1
vt 0.125 0.875
vt 0.25 0.875
vn 0 -1 0
vn 0 1 0
f 5/3/2 6/1/2 12/2/2 11/4/2
f 11/3/2 12/1/2 18/2/2 17/4/2
f 17/3/2 18/1/2 24/2/2 23/4/2
f 23/3/2 24/1/2 30/2/2 29/4/2
f 29/3/2 30/1/2 36/2/2 35/4/2
f 35/3/2 36/1/2 42/2/2 41/4/2
f 41/3/2 42/1/2 48/2/2 47/4/2
f 47/3/2 48/1/2 54/2/2 53/4/2
f 53/3/2 54/1/2 60/2/2 59/4/2
f 59/3/2 60/1/2 66/2/2 65/4/2
f 4/3/2 5/1/2 11/2/2 10/4/2
f 10/3/2 11/1/2 17/2/2 16/4/2
f 16/3/2 17/1/2 23/2/2 22/4/2
f 22/3/2 23/1/2 29/2/2 28/4/2
f 28/3/2 29/1/2 35/2/2 34/4/2
f 34/3/2 35/1/2 41/2/2 40/4/2
f 40/3/2 41/1/2 47/2/2 46/4/2
f 46/3/2 47/1/2 53/2/2 52/4/2
f 52/3/2 53/1/2 59/2/2 58/4/2
f 58/3/2 59/1/2 65/2/2 64/4/2
vt 0 0.5
vt 0.125 0.5
vt 0 0.375
vt 0.125 0.375
f 3/7/2 4/5/2 10/6/2 9/8/2
vt 0.25 0.5
vt 0.375 0.5
vt 0.25 0.375
vt 0.375 0.375
f 9/11/2 10/9/2 16/10/2 15/12/2
vt 1 0.375
vt 0.875 0.375
vt 1 0.5
vt 0.875 0.5
f 15/15/2 16/13/2 22/14/2 21/16/2
vt 0.75 0.375
vt 0.75 0.5
f 21/16/2 22/14/2 28/17/2 27/18/2
vt 0.5 0.625
vt 0.625 0.625
vt 0.5 0.5
vt 0.625 0.5
f 27/21/2 28/19/2 34/20/2 33/22/2
f 33/3/2 34/1/2 40/2/2 39/4/2
f 39/3/2 40/1/2 46/2/2 45/4/2
vt 0.75 1
vt 0.875 1
vt 0.75 0.875
vt 0.875 0.875
f 45/25/2 46/23/2 52/24/2 51/26/2
f 51/3/2 52/1/2 58/2/2 57/4/2
f 57/3/2 58/1/2 64/2/2 63/4/2
vt 0 0.25
vt 0.125 0.25
f 2/27/2 3/7/2 9/8/2 8/28/2
vt 0.25 0.25
vt 0.375 0.25
f 8/29/2 9/11/2 15/12/2 14/30/2
vt 1 0.625
vt 0.875 0.625
f 14/31/2 15/15/2 21/16/2 20/32/2
vt 0.75 0.625
f 20/32/2 21/16/2 27/18/2 26/33/2
f 26/21/2 27/19/2 33/20/2 32/22/2
f 32/3/2 33/1/2 39/2/2 38/4/2
f 38/3/2 39/1/2 45/2/2 44/4/2
f 44/25/2 45/23/2 51/24/2 50/26/2
f 50/3/2 51/1/2 57/2/2 56/4/2
f 56/3/2 57/1/2 63/2/2 62/4/2
vt 0 0.125
vt 0.125 0.125
f 1/34/2 2/27/2 8/28/2 7/35/2
vt 0.25 0.125
vt 0.375 0.125
f 7/36/2 8/29/2 14/30/2 13/37/2
f 13/3/2 14/1/2 20/2/2 19/4/2
f 19/3/2 20/1/2 26/2/2 25/4/2
f 25/21/2 26/19/2 32/20/2 31/22/2
f 31/3/2 32/1/2 38/2/2 37/4/2
f 37/3/2 38/1/2 44/2/2 43/4/2
f 43/25/2 44/23/2 50/24/2 49/26/2
f 49/3/2 50/1/2 56/2/2 55/4/2
f 55/3/2 56/1/2 62/2/2 61/4/2
v -5 0 -3
v -5 0 -2
v -5 0 -1
v -5 0 0
v -5 0 1
v -5 0 2
v -4 0 -3
v -4 0 -2
v -4 0 -1
v -4 0 0
v -4 0 1
v -4 0 2
v -3 0 -3
v -3 0 -2
v -3 0 -1
v -3 0 0
v -3 0 1
v -3 0 2
v -2 0 -3
v -2 0 -2
v -2 0 -1
v -2 0 0
v -2 0 1
v -2 0 2
v -1 0 -3
v -1 0 -2
v -1 0 -1
v -1 0 0
v -1 0 1
v -1 0 2
v 0 0 -3
v 0 0 -2
v 0 0 -1
v 0 0 0
v 0 0 1
v 0 0 2
v 1 0 -3
v 1 0 -2
v 1 0 -1
v 1 0 0
v 1 0 1
v 1 0 2
v 2 0 -3
v 2 0 -2
v 2 0 -1
v 2 0 0
v 2 0 1
v 2 0 2
v 3 0 -3
v 3 0 -2
v 3 0 -1
v 3 0 0
v 3 0 1
v 3 0 2
v 4 0 -3
v 4 0 -2
v 4 0 -1
v 4 0 0
v 4 0 1
v 4 0 2
v 5 0 -3
v 5 0 -2
v 5 0 -1
v 5 0 0
v 5 0 1
v 5 0 2
usemtl M_City_Road_Voxel_png
vt 0 1
vt 0 0.875
f 77/3/1 78/1/1 72/38/1 71/39/1
f 83/3/1 84/1/1 78/38/1 77/39/1
f 89/3/1 90/1/1 84/38/1 83/39/1
f 95/3/1 96/1/1 90/38/1 89/39/1
f 101/3/1 102/1/1 96/38/1 95/39/1
f 107/3/1 108/1/1 102/38/1 101/39/1
f 113/3/1 114/1/1 108/38/1 107/39/1
f 119/3/1 120/1/1 114/38/1 113/39/1
f 125/3/1 126/1/1 120/38/1 119/39/1
f 131/3/1 132/1/1 126/38/1 125/39/1
f 76/3/1 77/1/1 71/38/1 70/39/1
f 82/3/1 83/1/1 77/38/1 76/39/1
f 88/3/1 89/1/1 83/38/1 82/39/1
f 94/3/1 95/1/1 89/38/1 88/39/1
f 100/3/1 101/1/1 95/38/1 94/39/1
f 106/3/1 107/1/1 101/38/1 100/39/1
f 112/3/1 113/1/1 107/38/1 106/39/1
f 118/3/1 119/1/1 113/38/1 112/39/1
f 124/3/1 125/1/1 119/38/1 118/39/1
f 130/3/1 131/1/1 125/38/1 124/39/1
f 75/3/1 76/1/1 70/38/1 69/39/1
f 81/3/1 82/1/1 76/38/1 75/39/1
f 87/3/1 88/1/1 82/38/1 81/39/1
f 93/3/1 94/1/1 88/38/1 87/39/1
f 99/3/1 100/1/1 94/38/1 93/39/1
f 105/3/1 106/1/1 100/38/1 99/39/1
f 111/3/1 112/1/1 106/38/1 105/39/1
f 117/3/1 118/1/1 112/38/1 111/39/1
f 123/3/1 124/1/1 118/38/1 117/39/1
f 129/3/1 130/1/1 124/38/1 123/39/1
f 74/3/1 75/1/1 69/38/1 68/39/1
f 80/3/1 81/1/1 75/38/1 74/39/1
f 86/3/1 87/1/1 81/38/1 80/39/1
f 92/3/1 93/1/1 87/38/1 86/39/1
f 98/3/1 99/1/1 93/38/1 92/39/1
f 104/3/1 105/1/1 99/38/1 98/39/1
f 110/3/1 111/1/1 105/38/1 104/39/1
f 116/3/1 117/1/1 111/38/1 110/39/1
f 122/3/1 123/1/1 117/38/1 116/39/1
f 128/3/1 129/1/1 123/38/1 122/39/1
f 73/3/1 74/1/1 68/38/1 67/39/1
f 79/3/1 80/1/1 74/38/1 73/39/1
f 85/3/1 86/1/1 80/38/1 79/39/1
f 91/3/1 92/1/1 86/38/1 85/39/1
f 97/3/1 98/1/1 92/38/1 91/39/1
f 103/3/1 104/1/1 98/38/1 97/39/1
f 109/3/1 110/1/1 104/38/1 103/39/1
f 115/3/1 116/1/1 110/38/1 109/39/1
f 121/3/1 122/1/1 116/38/1 115/39/1
f 127/3/1 128/1/1 122/38/1 121/39/1
v -5 1 -3
v -5 0 -3
v -4 1 -3
v -4 0 -3
v -3 1 -3
v -3 0 -3
v -2 1 -3
v -2 0 -3
v -1 1 -3
v -1 0 -3
v 0 1 -3
v 0 0 -3
v 1 1 -3
v 1 0 -3
v 2 1 -3
v 2 0 -3
v 3 1 -3
v 3 0 -3
v 4 1 -3
v 4 0 -3
v 5 1 -3
v 5 0 -3
usemtl M_City_Road_Voxel_png
vt 0.5 1
vt 0.625 1
vt 0.5 0.875
vt 0.625 0.875
vn 0 0 -1
vn 0 0 1
f 135/41/3 136/43/3 134/42/3 133/40/3
f 137/41/3 138/43/3 136/42/3 135/40/3
f 139/41/3 140/43/3 138/42/3 137/40/3
f 141/41/3 142/43/3 140/42/3 139/40/3
f 143/41/3 144/43/3 142/42/3 141/40/3
f 145/41/3 146/43/3 144/42/3 143/40/3
f 147/41/3 148/43/3 146/42/3 145/40/3
f 149/41/3 150/43/3 148/42/3 147/40/3
f 151/41/3 152/43/3 150/42/3 149/40/3
f 153/41/3 154/43/3 152/42/3 151/40/3
v -5 1 2
v -5 0 2
v -4 1 2
v -4 0 2
v -3 1 2
v -3 0 2
v -2 1 2
v -2 0 2
v -1 1 2
v -1 0 2
v 0 1 2
v 0 0 2
v 1 1 2
v 1 0 2
v 2 1 2
v 2 0 2
v 3 1 2
v 3 0 2
v 4 1 2
v 4 0 2
v 5 1 2
v 5 0 2
usemtl M_City_Road_Voxel_png
f 155/40/4 156/42/4 158/43/4 157/41/4
f 157/40/4 158/42/4 160/43/4 159/41/4
f 159/40/4 160/42/4 162/43/4 161/41/4
f 161/40/4 162/42/4 164/43/4 163/41/4
f 163/40/4 164/42/4 166/43/4 165/41/4
f 165/40/4 166/42/4 168/43/4 167/41/4
f 167/40/4 168/42/4 170/43/4 169/41/4
f 169/40/4 170/42/4 172/43/4 171/41/4
f 171/40/4 172/42/4 174/43/4 173/41/4
f 173/40/4 174/42/4 176/43/4 175/41/4
v -5 1 2
v -5 0 2
v -5 1 1
v -5 0 1
v -5 1 0
v -5 0 0
v -5 1 -1
v -5 0 -1
v -5 1 -2
v -5 0 -2
v -5 1 -3
v -5 0 -3
usemtl M_City_Road_Voxel_png
vn -1 0 0
vn 1 0 0
f 179/41/5 180/43/5 178/42/5 177/40/5
f 181/41/5 182/43/5 180/42/5 179/40/5
f 183/41/5 184/43/5 182/42/5 181/40/5
f 185/41/5 186/43/5 184/42/5 183/40/5
f 187/41/5 188/43/5 186/42/5 185/40/5
v 5 1 2
v 5 0 2
v 5 1 1
v 5 0 1
v 5 1 0
v 5 0 0
v 5 1 -1
v 5 0 -1
v 5 1 -2
v 5 0 -2
v 5 1 -3
v 5 0 -3
usemtl M_City_Road_Voxel_png
f 189/40/6 190/42/6 192/43/6 191/41/6
f 191/40/6 192/42/6 194/43/6 193/41/6
f 193/40/6 194/42/6 196/43/6 195/41/6
f 195/40/6 196/42/6 198/43/6 197/41/6
f 197/40/6 198/42/6 200/43/6 199/41/6
