mtllib ParkingLot6.mtl
# Minecramps Model Editor generated obj
# www.davididev.com
# ----Generated Normals----
# ----Model----
o PLATFORM1
v -2 1 -5
v -2 1 -4
v -2 1 -3
v -2 1 -2
v -2 1 -1
v -2 1 0
v -2 1 1
v -2 1 2
v -2 1 3
v -2 1 4
v -2 1 5
v -1 1 -5
v -1 1 -4
v -1 1 -3
v -1 1 -2
v -1 1 -1
v -1 1 0
v -1 1 1
v -1 1 2
v -1 1 3
v -1 1 4
v -1 1 5
v 0 1 -5
v 0 1 -4
v 0 1 -3
v 0 1 -2
v 0 1 -1
v 0 1 0
v 0 1 1
v 0 1 2
v 0 1 3
v 0 1 4
v 0 1 5
v 1 1 -5
v 1 1 -4
v 1 1 -3
v 1 1 -2
v 1 1 -1
v 1 1 0
v 1 1 1
v 1 1 2
v 1 1 3
v 1 1 4
v 1 1 5
v 2 1 -5
v 2 1 -4
v 2 1 -3
v 2 1 -2
v 2 1 -1
v 2 1 0
v 2 1 1
v 2 1 2
v 2 1 3
v 2 1 4
v 2 1 5
v 3 1 -5
v 3 1 -4
v 3 1 -3
v 3 1 -2
v 3 1 -1
v 3 1 0
v 3 1 1
v 3 1 2
v 3 1 3
v 3 1 4
v 3 1 5
usemtl M_City_Road_Voxel_png
vt 0.125 1
vt 0.25 1
vt 0.125 0.875
vt 0.25 0.875
vn 0 -1 0
vn 0 1 0
f 10/3/2 11/1/2 22/2/2 21/4/2
f 21/3/2 22/1/2 33/2/2 32/4/2
vt 0 0.5
vt 0.125 0.5
vt 0 0.375
vt 0.125 0.375
f 32/7/2 33/5/2 44/6/2 43/8/2
vt 0.25 0.5
vt 0.25 0.375
f 43/8/2 44/6/2 55/9/2 54/10/2
vt 0.375 0.5
vt 0.375 0.375
f 54/10/2 55/9/2 66/11/2 65/12/2
f 9/3/2 10/1/2 21/2/2 20/4/2
f 20/3/2 21/1/2 32/2/2 31/4/2
vt 0 0.25
vt 0.125 0.25
vt 0 0.125
vt 0.125 0.125
f 31/15/2 32/13/2 43/14/2 42/16/2
vt 0.25 0.25
vt 0.25 0.125
f 42/16/2 43/14/2 54/17/2 53/18/2
vt 0.375 0.25
vt 0.375 0.125
f 53/18/2 54/17/2 65/19/2 64/20/2
f 8/3/2 9/1/2 20/2/2 19/4/2
f 19/3/2 20/1/2 31/2/2 30/4/2
f 30/3/2 31/1/2 42/2/2 41/4/2
vt 0.75 0.375
vt 0.75 0.5
vt 0.875 0.375
vt 0.875 0.5
f 41/23/2 42/21/2 53/22/2 52/24/2
vt 0.75 0.625
vt 0.875 0.625
f 52/24/2 53/22/2 64/25/2 63/26/2
f 7/3/2 8/1/2 19/2/2 18/4/2
f 18/3/2 19/1/2 30/2/2 29/4/2
f 29/3/2 30/1/2 41/2/2 40/4/2
vt 1 0.375
vt 1 0.5
f 40/27/2 41/23/2 52/24/2 51/28/2
vt 1 0.625
f 51/28/2 52/24/2 63/26/2 62/29/2
f 6/3/2 7/1/2 18/2/2 17/4/2
f 17/3/2 18/1/2 29/2/2 28/4/2
vt 0.625 0.625
vt 0.625 0.5
f 28/31/2 29/30/2 40/25/2 39/22/2
f 39/31/2 40/30/2 51/25/2 50/22/2
f 50/31/2 51/30/2 62/25/2 61/22/2
f 5/3/2 6/1/2 17/2/2 16/4/2
f 16/3/2 17/1/2 28/2/2 27/4/2
f 27/3/2 28/1/2 39/2/2 38/4/2
f 38/3/2 39/1/2 50/2/2 49/4/2
f 49/3/2 50/1/2 61/2/2 60/4/2
f 4/3/2 5/1/2 16/2/2 15/4/2
f 15/3/2 16/1/2 27/2/2 26/4/2
f 26/3/2 27/1/2 38/2/2 37/4/2
f 37/3/2 38/1/2 49/2/2 48/4/2
f 48/3/2 49/1/2 60/2/2 59/4/2
f 3/3/2 4/1/2 15/2/2 14/4/2
f 14/3/2 15/1/2 26/2/2 25/4/2
vt 0.875 1
vt 1 1
vt 0.875 0.875
vt 1 0.875
f 25/34/2 26/32/2 37/33/2 36/35/2
f 36/34/2 37/32/2 48/33/2 47/35/2
f 47/34/2 48/32/2 59/33/2 58/35/2
f 2/3/2 3/1/2 14/2/2 13/4/2
f 13/3/2 14/1/2 25/2/2 24/4/2
f 24/3/2 25/1/2 36/2/2 35/4/2
f 35/3/2 36/1/2 47/2/2 46/4/2
f 46/3/2 47/1/2 58/2/2 57/4/2
f 1/3/2 2/1/2 13/2/2 12/4/2
f 12/3/2 13/1/2 24/2/2 23/4/2
f 23/3/2 24/1/2 35/2/2 34/4/2
f 34/3/2 35/1/2 46/2/2 45/4/2
f 45/3/2 46/1/2 57/2/2 56/4/2
v -2 0 -5
v -2 0 -4
v -2 0 -3
v -2 0 -2
v -2 0 -1
v -2 0 0
v -2 0 1
v -2 0 2
v -2 0 3
v -2 0 4
v -2 0 5
v -1 0 -5
v -1 0 -4
v -1 0 -3
v -1 0 -2
v -1 0 -1
v -1 0 0
v -1 0 1
v -1 0 2
v -1 0 3
v -1 0 4
v -1 0 5
v 0 0 -5
v 0 0 -4
v 0 0 -3
v 0 0 -2
v 0 0 -1
v 0 0 0
v 0 0 1
v 0 0 2
v 0 0 3
v 0 0 4
v 0 0 5
v 1 0 -5
v 1 0 -4
v 1 0 -3
v 1 0 -2
v 1 0 -1
v 1 0 0
v 1 0 1
v 1 0 2
v 1 0 3
v 1 0 4
v 1 0 5
v 2 0 -5
v 2 0 -4
v 2 0 -3
v 2 0 -2
v 2 0 -1
v 2 0 0
v 2 0 1
v 2 0 2
v 2 0 3
v 2 0 4
v 2 0 5
v 3 0 -5
v 3 0 -4
v 3 0 -3
v 3 0 -2
v 3 0 -1
v 3 0 0
v 3 0 1
v 3 0 2
v 3 0 3
v 3 0 4
v 3 0 5
usemtl M_City_Road_Voxel_png
vt 0 1
vt 0 0.875
f 87/3/1 88/1/1 77/36/1 76/37/1
f 98/3/1 99/1/1 88/36/1 87/37/1
f 109/3/1 110/1/1 99/36/1 98/37/1
f 120/3/1 121/1/1 110/36/1 109/37/1
f 131/3/1 132/1/1 121/36/1 120/37/1
f 86/3/1 87/1/1 76/36/1 75/37/1
f 97/3/1 98/1/1 87/36/1 86/37/1
f 108/3/1 109/1/1 98/36/1 97/37/1
f 119/3/1 120/1/1 109/36/1 108/37/1
f 130/3/1 131/1/1 120/36/1 119/37/1
f 85/3/1 86/1/1 75/36/1 74/37/1
f 96/3/1 97/1/1 86/36/1 85/37/1
f 107/3/1 108/1/1 97/36/1 96/37/1
f 118/3/1 119/1/1 108/36/1 107/37/1
f 129/3/1 130/1/1 119/36/1 118/37/1
f 84/3/1 85/1/1 74/36/1 73/37/1
f 95/3/1 96/1/1 85/36/1 84/37/1
f 106/3/1 107/1/1 96/36/1 95/37/1
f 117/3/1 118/1/1 107/36/1 106/37/1
f 128/3/1 129/1/1 118/36/1 117/37/1
f 83/3/1 84/1/1 73/36/1 72/37/1
f 94/3/1 95/1/1 84/36/1 83/37/1
f 105/3/1 106/1/1 95/36/1 94/37/1
f 116/3/1 117/1/1 106/36/1 105/37/1
f 127/3/1 128/1/1 117/36/1 116/37/1
f 82/3/1 83/1/1 72/36/1 71/37/1
f 93/3/1 94/1/1 83/36/1 82/37/1
f 104/3/1 105/1/1 94/36/1 93/37/1
f 115/3/1 116/1/1 105/36/1 104/37/1
f 126/3/1 127/1/1 116/36/1 115/37/1
f 81/3/1 82/1/1 71/36/1 70/37/1
f 92/3/1 93/1/1 82/36/1 81/37/1
f 103/3/1 104/1/1 93/36/1 92/37/1
f 114/3/1 115/1/1 104/36/1 103/37/1
f 125/3/1 126/1/1 115/36/1 114/37/1
f 80/3/1 81/1/1 70/36/1 69/37/1
f 91/3/1 92/1/1 81/36/1 80/37/1
f 102/3/1 103/1/1 92/36/1 91/37/1
f 113/3/1 114/1/1 103/36/1 102/37/1
f 124/3/1 125/1/1 114/36/1 113/37/1
f 79/3/1 80/1/1 69/36/1 68/37/1
f 90/3/1 91/1/1 80/36/1 79/37/1
f 101/3/1 102/1/1 91/36/1 90/37/1
f 112/3/1 113/1/1 102/36/1 101/37/1
f 123/3/1 124/1/1 113/36/1 112/37/1
f 78/3/1 79/1/1 68/36/1 67/37/1
f 89/3/1 90/1/1 79/36/1 78/37/1
f 100/3/1 101/1/1 90/36/1 89/37/1
f 111/3/1 112/1/1 101/36/1 100/37/1
f 122/3/1 123/1/1 112/36/1 111/37/1
v -2 1 -5
v -2 0 -5
v -1 1 -5
v -1 0 -5
v 0 1 -5
v 0 0 -5
v 1 1 -5
v 1 0 -5
v 2 1 -5
v 2 0 -5
v 3 1 -5
v 3 0 -5
usemtl M_City_Road_Voxel_png
vt 0.5 1
vt 0.625 1
vt 0.5 0.875
vt 0.625 0.875
vn 0 0 -1
vn 0 0 1
f 135/39/3 136/41/3 134/40/3 133/38/3
f 137/39/3 138/41/3 136/40/3 135/38/3
f 139/39/3 140/41/3 138/40/3 137/38/3
f 141/39/3 142/41/3 140/40/3 139/38/3
f 143/39/3 144/41/3 142/40/3 141/38/3
v -2 1 5
v -2 0 5
v -1 1 5
v -1 0 5
v 0 1 5
v 0 0 5
v 1 1 5
v 1 0 5
v 2 1 5
v 2 0 5
v 3 1 5
v 3 0 5
usemtl M_City_Road_Voxel_png
f 145/38/4 146/40/4 148/41/4 147/39/4
f 147/38/4 148/40/4 150/41/4 149/39/4
f 149/38/4 150/40/4 152/41/4 151/39/4
f 151/38/4 152/40/4 154/41/4 153/39/4
f 153/38/4 154/40/4 156/41/4 155/39/4
v -2 1 5
v -2 0 5
v -2 1 4
v -2 0 4
v -2 1 3
v -2 0 3
v -2 1 2
v -2 0 2
v -2 1 1
v -2 0 1
v -2 1 0
v -2 0 0
v -2 1 -1
v -2 0 -1
v -2 1 -2
v -2 0 -2
v -2 1 -3
v -2 0 -3
v -2 1 -4
v -2 0 -4
v -2 1 -5
v -2 0 -5
usemtl M_City_Road_Voxel_png
vn -1 0 0
vn 1 0 0
f 159/39/5 160/41/5 158/40/5 157/38/5
f 161/39/5 162/41/5 160/40/5 159/38/5
f 163/39/5 164/41/5 162/40/5 161/38/5
f 165/39/5 166/41/5 164/40/5 163/38/5
f 167/39/5 168/41/5 166/40/5 165/38/5
f 169/39/5 170/41/5 168/40/5 167/38/5
f 171/39/5 172/41/5 170/40/5 169/38/5
f 173/39/5 174/41/5 172/40/5 171/38/5
f 175/39/5 176/41/5 174/40/5 173/38/5
f 177/39/5 178/41/5 176/40/5 175/38/5
v 3 1 5
v 3 0 5
v 3 1 4
v 3 0 4
v 3 1 3
v 3 0 3
v 3 1 2
v 3 0 2
v 3 1 1
v 3 0 1
v 3 1 0
v 3 0 0
v 3 1 -1
v 3 0 -1
v 3 1 -2
v 3 0 -2
v 3 1 -3
v 3 0 -3
v 3 1 -4
v 3 0 -4
v 3 1 -5
v 3 0 -5
usemtl M_City_Road_Voxel_png
f 179/38/6 180/40/6 182/41/6 181/39/6
f 181/38/6 182/40/6 184/41/6 183/39/6
f 183/38/6 184/40/6 186/41/6 185/39/6
f 185/38/6 186/40/6 188/41/6 187/39/6
f 187/38/6 188/40/6 190/41/6 189/39/6
f 189/38/6 190/40/6 192/41/6 191/39/6
f 191/38/6 192/40/6 194/41/6 193/39/6
f 193/38/6 194/40/6 196/41/6 195/39/6
f 195/38/6 196/40/6 198/41/6 197/39/6
f 197/38/6 198/40/6 200/41/6 199/39/6
