mtllib ParkingLot1.mtl
# Minecramps Model Editor generated obj
# www.davididev.com
# ----Generated Normals----
# ----Model----
o PLATFORM1
v -5 1 -3
v -5 1 -2
v -5 1 -1
v -5 1 0
v -5 1 1
v -5 1 2
v -4 1 -3
v -4 1 -2
v -4 1 -1
v -4 1 0
v -4 1 1
v -4 1 2
v -3 1 -3
v -3 1 -2
v -3 1 -1
v -3 1 0
v -3 1 1
v -3 1 2
v -2 1 -3
v -2 1 -2
v -2 1 -1
v -2 1 0
v -2 1 1
v -2 1 2
v -1 1 -3
v -1 1 -2
v -1 1 -1
v -1 1 0
v -1 1 1
v -1 1 2
v 0 1 -3
v 0 1 -2
v 0 1 -1
v 0 1 0
v 0 1 1
v 0 1 2
v 1 1 -3
v 1 1 -2
v 1 1 -1
v 1 1 0
v 1 1 1
v 1 1 2
v 2 1 -3
v 2 1 -2
v 2 1 -1
v 2 1 0
v 2 1 1
v 2 1 2
v 3 1 -3
v 3 1 -2
v 3 1 -1
v 3 1 0
v 3 1 1
v 3 1 2
v 4 1 -3
v 4 1 -2
v 4 1 -1
v 4 1 0
v 4 1 1
v 4 1 2
v 5 1 -3
v 5 1 -2
v 5 1 -1
v 5 1 0
v 5 1 1
v 5 1 2
usemtl M_City_Road_Voxel_png
vt 0 0.5
vt 0.125 0.5
vt 0 0.375
vt 0.125 0.375
vn 0 -1 0
vn 0 1 0
f 5/3/2 6/1/2 12/2/2 11/4/2
vt 0.25 0.5
vt 0.375 0.5
vt 0.25 0.375
vt 0.375 0.375
f 11/7/2 12/5/2 18/6/2 17/8/2
vt 0.75 0.625
vt 0.875 0.625
vt 0.75 0.5
vt 0.875 0.5
f 17/11/2 18/9/2 24/10/2 23/12/2
vt 1 0.625
vt 1 0.5
f 23/12/2 24/10/2 30/13/2 29/14/2
vt 0.5 0.625
vt 0.625 0.625
vt 0.5 0.5
vt 0.625 0.5
f 29/17/2 30/15/2 36/16/2 35/18/2
vt 0.125 1
vt 0.25 1
vt 0.125 0.875
vt 0.25 0.875
f 35/21/2 36/19/2 42/20/2 41/22/2
f 41/21/2 42/19/2 48/20/2 47/22/2
vt 0.75 1
vt 0.875 1
vt 0.75 0.875
vt 0.875 0.875
f 47/25/2 48/23/2 54/24/2 53/26/2
f 53/21/2 54/19/2 60/20/2 59/22/2
f 59/21/2 60/19/2 66/20/2 65/22/2
vt 0 0.25
vt 0.125 0.25
f 4/27/2 5/3/2 11/4/2 10/28/2
vt 0.25 0.25
vt 0.375 0.25
f 10/29/2 11/7/2 17/8/2 16/30/2
vt 0.75 0.375
vt 0.875 0.375
f 16/31/2 17/11/2 23/12/2 22/32/2
vt 1 0.375
f 22/32/2 23/12/2 29/14/2 28/33/2
f 28/17/2 29/15/2 35/16/2 34/18/2
f 34/21/2 35/19/2 41/20/2 40/22/2
f 40/21/2 41/19/2 47/20/2 46/22/2
f 46/25/2 47/23/2 53/24/2 52/26/2
f 52/21/2 53/19/2 59/20/2 58/22/2
f 58/21/2 59/19/2 65/20/2 64/22/2
vt 0 0.125
vt 0.125 0.125
f 3/34/2 4/27/2 10/28/2 9/35/2
vt 0.25 0.125
vt 0.375 0.125
f 9/36/2 10/29/2 16/30/2 15/37/2
f 15/21/2 16/19/2 22/20/2 21/22/2
f 21/21/2 22/19/2 28/20/2 27/22/2
f 27/17/2 28/15/2 34/16/2 33/18/2
f 33/21/2 34/19/2 40/20/2 39/22/2
f 39/21/2 40/19/2 46/20/2 45/22/2
f 45/25/2 46/23/2 52/24/2 51/26/2
f 51/21/2 52/19/2 58/20/2 57/22/2
f 57/21/2 58/19/2 64/20/2 63/22/2
f 2/21/2 3/19/2 9/20/2 8/22/2
f 8/21/2 9/19/2 15/20/2 14/22/2
f 14/21/2 15/19/2 21/20/2 20/22/2
f 20/21/2 21/19/2 27/20/2 26/22/2
f 26/21/2 27/19/2 33/20/2 32/22/2
f 32/21/2 33/19/2 39/20/2 38/22/2
f 38/21/2 39/19/2 45/20/2 44/22/2
f 44/21/2 45/19/2 51/20/2 50/22/2
f 50/21/2 51/19/2 57/20/2 56/22/2
f 56/21/2 57/19/2 63/20/2 62/22/2
f 1/21/2 2/19/2 8/20/2 7/22/2
f 7/21/2 8/19/2 14/20/2 13/22/2
f 13/21/2 14/19/2 20/20/2 19/22/2
f 19/21/2 20/19/2 26/20/2 25/22/2
f 25/21/2 26/19/2 32/20/2 31/22/2
f 31/21/2 32/19/2 38/20/2 37/22/2
f 37/21/2 38/19/2 44/20/2 43/22/2
f 43/21/2 44/19/2 50/20/2 49/22/2
f 49/21/2 50/19/2 56/20/2 55/22/2
f 55/21/2 56/19/2 62/20/2 61/22/2
v -5 0 -3
v -5 0 -2
v -5 0 -1
v -5 0 0
v -5 0 1
v -5 0 2
v -4 0 -3
v -4 0 -2
v -4 0 -1
v -4 0 0
v -4 0 1
v -4 0 2
v -3 0 -3
v -3 0 -2
v -3 0 -1
v -3 0 0
v -3 0 1
v -3 0 2
v -2 0 -3
v -2 0 -2
v -2 0 -1
v -2 0 0
v -2 0 1
v -2 0 2
v -1 0 -3
v -1 0 -2
v -1 0 -1
v -1 0 0
v -1 0 1
v -1 0 2
v 0 0 -3
v 0 0 -2
v 0 0 -1
v 0 0 0
v 0 0 1
v 0 0 2
v 1 0 -3
v 1 0 -2
v 1 0 -1
v 1 0 0
v 1 0 1
v 1 0 2
v 2 0 -3
v 2 0 -2
v 2 0 -1
v 2 0 0
v 2 0 1
v 2 0 2
v 3 0 -3
v 3 0 -2
v 3 0 -1
v 3 0 0
v 3 0 1
v 3 0 2
v 4 0 -3
v 4 0 -2
v 4 0 -1
v 4 0 0
v 4 0 1
v 4 0 2
v 5 0 -3
v 5 0 -2
v 5 0 -1
v 5 0 0
v 5 0 1
v 5 0 2
usemtl M_City_Road_Voxel_png
vt 0 1
vt 0 0.875
f 77/21/1 78/19/1 72/38/1 71/39/1
f 83/21/1 84/19/1 78/38/1 77/39/1
f 89/21/1 90/19/1 84/38/1 83/39/1
f 95/21/1 96/19/1 90/38/1 89/39/1
f 101/21/1 102/19/1 96/38/1 95/39/1
f 107/21/1 108/19/1 102/38/1 101/39/1
f 113/21/1 114/19/1 108/38/1 107/39/1
f 119/21/1 120/19/1 114/38/1 113/39/1
f 125/21/1 126/19/1 120/38/1 119/39/1
f 131/21/1 132/19/1 126/38/1 125/39/1
f 76/21/1 77/19/1 71/38/1 70/39/1
f 82/21/1 83/19/1 77/38/1 76/39/1
f 88/21/1 89/19/1 83/38/1 82/39/1
f 94/21/1 95/19/1 89/38/1 88/39/1
f 100/21/1 101/19/1 95/38/1 94/39/1
f 106/21/1 107/19/1 101/38/1 100/39/1
f 112/21/1 113/19/1 107/38/1 106/39/1
f 118/21/1 119/19/1 113/38/1 112/39/1
f 124/21/1 125/19/1 119/38/1 118/39/1
f 130/21/1 131/19/1 125/38/1 124/39/1
f 75/21/1 76/19/1 70/38/1 69/39/1
f 81/21/1 82/19/1 76/38/1 75/39/1
f 87/21/1 88/19/1 82/38/1 81/39/1
f 93/21/1 94/19/1 88/38/1 87/39/1
f 99/21/1 100/19/1 94/38/1 93/39/1
f 105/21/1 106/19/1 100/38/1 99/39/1
f 111/21/1 112/19/1 106/38/1 105/39/1
f 117/21/1 118/19/1 112/38/1 111/39/1
f 123/21/1 124/19/1 118/38/1 117/39/1
f 129/21/1 130/19/1 124/38/1 123/39/1
f 74/21/1 75/19/1 69/38/1 68/39/1
f 80/21/1 81/19/1 75/38/1 74/39/1
f 86/21/1 87/19/1 81/38/1 80/39/1
f 92/21/1 93/19/1 87/38/1 86/39/1
f 98/21/1 99/19/1 93/38/1 92/39/1
f 104/21/1 105/19/1 99/38/1 98/39/1
f 110/21/1 111/19/1 105/38/1 104/39/1
f 116/21/1 117/19/1 111/38/1 110/39/1
f 122/21/1 123/19/1 117/38/1 116/39/1
f 128/21/1 129/19/1 123/38/1 122/39/1
f 73/21/1 74/19/1 68/38/1 67/39/1
f 79/21/1 80/19/1 74/38/1 73/39/1
f 85/21/1 86/19/1 80/38/1 79/39/1
f 91/21/1 92/19/1 86/38/1 85/39/1
f 97/21/1 98/19/1 92/38/1 91/39/1
f 103/21/1 104/19/1 98/38/1 97/39/1
f 109/21/1 110/19/1 104/38/1 103/39/1
f 115/21/1 116/19/1 110/38/1 109/39/1
f 121/21/1 122/19/1 116/38/1 115/39/1
f 127/21/1 128/19/1 122/38/1 121/39/1
v -5 1 -3
v -5 0 -3
v -4 1 -3
v -4 0 -3
v -3 1 -3
v -3 0 -3
v -2 1 -3
v -2 0 -3
v -1 1 -3
v -1 0 -3
v 0 1 -3
v 0 0 -3
v 1 1 -3
v 1 0 -3
v 2 1 -3
v 2 0 -3
v 3 1 -3
v 3 0 -3
v 4 1 -3
v 4 0 -3
v 5 1 -3
v 5 0 -3
usemtl M_City_Road_Voxel_png
vt 0.5 1
vt 0.625 1
vt 0.5 0.875
vt 0.625 0.875
vn 0 0 -1
vn 0 0 1
f 135/41/3 136/43/3 134/42/3 133/40/3
f 137/41/3 138/43/3 136/42/3 135/40/3
f 139/41/3 140/43/3 138/42/3 137/40/3
f 141/41/3 142/43/3 140/42/3 139/40/3
f 143/41/3 144/43/3 142/42/3 141/40/3
f 145/41/3 146/43/3 144/42/3 143/40/3
f 147/41/3 148/43/3 146/42/3 145/40/3
f 149/41/3 150/43/3 148/42/3 147/40/3
f 151/41/3 152/43/3 150/42/3 149/40/3
f 153/41/3 154/43/3 152/42/3 151/40/3
v -5 1 2
v -5 0 2
v -4 1 2
v -4 0 2
v -3 1 2
v -3 0 2
v -2 1 2
v -2 0 2
v -1 1 2
v -1 0 2
v 0 1 2
v 0 0 2
v 1 1 2
v 1 0 2
v 2 1 2
v 2 0 2
v 3 1 2
v 3 0 2
v 4 1 2
v 4 0 2
v 5 1 2
v 5 0 2
usemtl M_City_Road_Voxel_png
f 155/40/4 156/42/4 158/43/4 157/41/4
f 157/40/4 158/42/4 160/43/4 159/41/4
f 159/40/4 160/42/4 162/43/4 161/41/4
f 161/40/4 162/42/4 164/43/4 163/41/4
f 163/40/4 164/42/4 166/43/4 165/41/4
f 165/40/4 166/42/4 168/43/4 167/41/4
f 167/40/4 168/42/4 170/43/4 169/41/4
f 169/40/4 170/42/4 172/43/4 171/41/4
f 171/40/4 172/42/4 174/43/4 173/41/4
f 173/40/4 174/42/4 176/43/4 175/41/4
v -5 1 2
v -5 0 2
v -5 1 1
v -5 0 1
v -5 1 0
v -5 0 0
v -5 1 -1
v -5 0 -1
v -5 1 -2
v -5 0 -2
v -5 1 -3
v -5 0 -3
usemtl M_City_Road_Voxel_png
vn -1 0 0
vn 1 0 0
f 179/41/5 180/43/5 178/42/5 177/40/5
f 181/41/5 182/43/5 180/42/5 179/40/5
f 183/41/5 184/43/5 182/42/5 181/40/5
f 185/41/5 186/43/5 184/42/5 183/40/5
f 187/41/5 188/43/5 186/42/5 185/40/5
v 5 1 2
v 5 0 2
v 5 1 1
v 5 0 1
v 5 1 0
v 5 0 0
v 5 1 -1
v 5 0 -1
v 5 1 -2
v 5 0 -2
v 5 1 -3
v 5 0 -3
usemtl M_City_Road_Voxel_png
f 189/40/6 190/42/6 192/43/6 191/41/6
f 191/40/6 192/42/6 194/43/6 193/41/6
f 193/40/6 194/42/6 196/43/6 195/41/6
f 195/40/6 196/42/6 198/43/6 197/41/6
f 197/40/6 198/42/6 200/43/6 199/41/6
