# Blender 4.0.2
# www.blender.org
mtllib RoadCorner1White.mtl
o CUBE1
v 2.000000 1.000000 1.000000
v 2.000000 1.000000 2.000000
v 1.000000 1.000000 2.000000
v 1.000000 1.000000 1.000000
v 1.000000 1.000000 1.000000
v 1.000000 1.000000 2.000000
v 0.000000 1.000000 2.000000
v 0.000000 1.000000 1.000000
v 0.000000 1.000000 1.000000
v 0.000000 1.000000 2.000000
v -1.000000 1.000000 2.000000
v -1.000000 1.000000 1.000000
v -1.000000 1.000000 1.000000
v -1.000000 1.000000 2.000000
v -2.000000 1.000000 2.000000
v -2.000000 1.000000 1.000000
v -2.000000 1.000000 1.000000
v -2.000000 1.000000 2.000000
v -2.500000 1.000000 1.500000
v -3.000000 1.000000 1.000000
v 2.000000 1.000000 0.000000
v 2.000000 1.000000 1.000000
v 1.000000 1.000000 1.000000
v 1.000000 1.000000 0.000000
v 1.000000 1.000000 0.000000
v 1.000000 1.000000 1.000000
v 0.000000 1.000000 1.000000
v 0.000000 1.000000 0.000000
v 0.000000 1.000000 0.000000
v 0.000000 1.000000 1.000000
v -1.000000 1.000000 1.000000
v -1.000000 1.000000 0.000000
v -1.000000 1.000000 0.000000
v -1.000000 1.000000 1.000000
v -2.000000 1.000000 1.000000
v -2.000000 1.000000 0.000000
v -2.000000 1.000000 0.000000
v -2.000000 1.000000 1.000000
v -3.000000 1.000000 1.000000
v -3.000000 1.000000 0.000000
v 2.000000 1.000000 -1.000000
v 2.000000 1.000000 0.000000
v 1.000000 1.000000 0.000000
v 1.000000 1.000000 -1.000000
v 1.000000 1.000000 -1.000000
v 1.000000 1.000000 0.000000
v 0.000000 1.000000 0.000000
v 0.000000 1.000000 -1.000000
v 0.000000 1.000000 -1.000000
v 0.000000 1.000000 0.000000
v -1.000000 1.000000 0.000000
v -1.000000 1.000000 -1.000000
v -1.000000 1.000000 -1.000000
v -1.000000 1.000000 0.000000
v -2.000000 1.000000 0.000000
v -2.000000 1.000000 -1.000000
v -2.000000 1.000000 -1.000000
v -2.000000 1.000000 0.000000
v -3.000000 1.000000 0.000000
v -3.000000 1.000000 -1.000000
v 2.000000 1.000000 -2.000000
v 2.000000 1.000000 -1.000000
v 1.000000 1.000000 -1.000000
v 1.000000 1.000000 -2.000000
v 1.000000 1.000000 -2.000000
v 1.000000 1.000000 -1.000000
v 0.000000 1.000000 -1.000000
v 0.000000 1.000000 -2.000000
v 0.000000 1.000000 -2.000000
v 0.000000 1.000000 -1.000000
v -1.000000 1.000000 -1.000000
v -1.000000 1.000000 -2.000000
v -1.000000 1.000000 -2.000000
v -1.000000 1.000000 -1.000000
v -2.000000 1.000000 -1.000000
v -2.000000 1.000000 -2.000000
v -2.000000 1.000000 -2.000000
v -2.000000 1.000000 -1.000000
v -3.000000 1.000000 -1.000000
v -3.000000 1.000000 -2.000000
v 2.000000 1.000000 -3.000000
v 2.000000 1.000000 -2.000000
v 1.000000 1.000000 -2.000000
v 1.000000 1.000000 -3.000000
v 1.000000 1.000000 -3.000000
v 1.000000 1.000000 -2.000000
v 0.000000 1.000000 -2.000000
v 0.000000 1.000000 -3.000000
v 0.000000 1.000000 -3.000000
v 0.000000 1.000000 -2.000000
v -1.000000 1.000000 -2.000000
v -1.000000 1.000000 -3.000000
v -1.000000 1.000000 -3.000000
v -1.000000 1.000000 -2.000000
v -2.000000 1.000000 -2.000000
v -2.000000 1.000000 -3.000000
v -2.000000 1.000000 -3.000000
v -2.000000 1.000000 -2.000000
v -3.000000 1.000000 -2.000000
v -3.000000 1.000000 -3.000000
v 1.000000 0.000000 1.000000
v 1.000000 0.000000 2.000000
v 2.000000 0.000000 2.000000
v 2.000000 0.000000 1.000000
v 0.000000 0.000000 1.000000
v 0.000000 0.000000 2.000000
v 1.000000 0.000000 2.000000
v 1.000000 0.000000 1.000000
v -1.000000 0.000000 1.000000
v -1.000000 0.000000 2.000000
v 0.000000 0.000000 2.000000
v 0.000000 0.000000 1.000000
v -2.000000 0.000000 1.000000
v -2.000000 0.000000 2.000000
v -1.000000 0.000000 2.000000
v -1.000000 0.000000 1.000000
v -3.000000 0.000000 1.000000
v -3.000000 0.000000 1.000000
v -2.500000 0.000000 1.500000
v -2.000000 0.000000 2.000000
v -2.000000 0.000000 2.000000
v -2.000000 0.000000 1.000000
v 1.000000 0.000000 0.000000
v 1.000000 0.000000 1.000000
v 2.000000 0.000000 1.000000
v 2.000000 0.000000 0.000000
v 0.000000 0.000000 0.000000
v 0.000000 0.000000 1.000000
v 1.000000 0.000000 1.000000
v 1.000000 0.000000 0.000000
v -1.000000 0.000000 0.000000
v -1.000000 0.000000 1.000000
v 0.000000 0.000000 1.000000
v 0.000000 0.000000 0.000000
v -2.000000 0.000000 0.000000
v -2.000000 0.000000 1.000000
v -1.000000 0.000000 1.000000
v -1.000000 0.000000 0.000000
v -3.000000 0.000000 0.000000
v -3.000000 0.000000 1.000000
v -2.000000 0.000000 1.000000
v -2.000000 0.000000 0.000000
v 1.000000 0.000000 -1.000000
v 1.000000 0.000000 0.000000
v 2.000000 0.000000 0.000000
v 2.000000 0.000000 -1.000000
v 0.000000 0.000000 -1.000000
v 0.000000 0.000000 0.000000
v 1.000000 0.000000 0.000000
v 1.000000 0.000000 -1.000000
v -1.000000 0.000000 -1.000000
v -1.000000 0.000000 0.000000
v 0.000000 0.000000 0.000000
v 0.000000 0.000000 -1.000000
v -2.000000 0.000000 -1.000000
v -2.000000 0.000000 0.000000
v -1.000000 0.000000 0.000000
v -1.000000 0.000000 -1.000000
v -3.000000 0.000000 -1.000000
v -3.000000 0.000000 0.000000
v -2.000000 0.000000 0.000000
v -2.000000 0.000000 -1.000000
v 1.000000 0.000000 -2.000000
v 1.000000 0.000000 -1.000000
v 2.000000 0.000000 -1.000000
v 2.000000 0.000000 -2.000000
v 0.000000 0.000000 -2.000000
v 0.000000 0.000000 -1.000000
v 1.000000 0.000000 -1.000000
v 1.000000 0.000000 -2.000000
v -1.000000 0.000000 -2.000000
v -1.000000 0.000000 -1.000000
v 0.000000 0.000000 -1.000000
v 0.000000 0.000000 -2.000000
v -2.000000 0.000000 -2.000000
v -2.000000 0.000000 -1.000000
v -1.000000 0.000000 -1.000000
v -1.000000 0.000000 -2.000000
v -3.000000 0.000000 -2.000000
v -3.000000 0.000000 -1.000000
v -2.000000 0.000000 -1.000000
v -2.000000 0.000000 -2.000000
v 1.000000 0.000000 -3.000000
v 1.000000 0.000000 -2.000000
v 2.000000 0.000000 -2.000000
v 2.000000 0.000000 -3.000000
v 0.000000 0.000000 -3.000000
v 0.000000 0.000000 -2.000000
v 1.000000 0.000000 -2.000000
v 1.000000 0.000000 -3.000000
v -1.000000 0.000000 -3.000000
v -1.000000 0.000000 -2.000000
v 0.000000 0.000000 -2.000000
v 0.000000 0.000000 -3.000000
v -2.000000 0.000000 -3.000000
v -2.000000 0.000000 -2.000000
v -1.000000 0.000000 -2.000000
v -1.000000 0.000000 -3.000000
v -3.000000 0.000000 -3.000000
v -3.000000 0.000000 -2.000000
v -2.000000 0.000000 -2.000000
v -2.000000 0.000000 -3.000000
v 1.000000 1.000000 -3.000000
v 1.000000 0.000000 -3.000000
v 2.000000 0.000000 -3.000000
v 2.000000 1.000000 -3.000000
v 0.000000 1.000000 -3.000000
v 0.000000 0.000000 -3.000000
v 1.000000 0.000000 -3.000000
v 1.000000 1.000000 -3.000000
v -1.000000 1.000000 -3.000000
v -1.000000 0.000000 -3.000000
v 0.000000 0.000000 -3.000000
v 0.000000 1.000000 -3.000000
v -2.000000 1.000000 -3.000000
v -2.000000 0.000000 -3.000000
v -1.000000 0.000000 -3.000000
v -1.000000 1.000000 -3.000000
v -3.000000 1.000000 -3.000000
v -3.000000 0.000000 -3.000000
v -2.000000 0.000000 -3.000000
v -2.000000 1.000000 -3.000000
v 2.000000 1.000000 2.000000
v 2.000000 0.000000 2.000000
v 1.000000 0.000000 2.000000
v 1.000000 1.000000 2.000000
v 1.000000 1.000000 2.000000
v 1.000000 0.000000 2.000000
v 0.000000 0.000000 2.000000
v 0.000000 1.000000 2.000000
v 0.000000 1.000000 2.000000
v 0.000000 0.000000 2.000000
v -1.000000 0.000000 2.000000
v -1.000000 1.000000 2.000000
v -1.000000 1.000000 2.000000
v -1.000000 0.000000 2.000000
v -2.000000 0.000000 2.000000
v -2.000000 1.000000 2.000000
v -2.000000 1.000000 2.000000
v -2.000000 0.000000 2.000000
v -2.500000 0.000000 1.500000
v -2.500000 1.000000 1.500000
v 2.000000 1.000000 1.000000
v 2.000000 0.000000 1.000000
v 2.000000 0.000000 2.000000
v 2.000000 1.000000 2.000000
v 2.000000 1.000000 0.000000
v 2.000000 0.000000 0.000000
v 2.000000 0.000000 1.000000
v 2.000000 1.000000 1.000000
v 2.000000 1.000000 -1.000000
v 2.000000 0.000000 -1.000000
v 2.000000 0.000000 0.000000
v 2.000000 1.000000 0.000000
v 2.000000 1.000000 -2.000000
v 2.000000 0.000000 -2.000000
v 2.000000 0.000000 -1.000000
v 2.000000 1.000000 -1.000000
v 2.000000 1.000000 -3.000000
v 2.000000 0.000000 -3.000000
v 2.000000 0.000000 -2.000000
v 2.000000 1.000000 -2.000000
v -2.500000 1.000000 1.500000
v -2.500000 0.000000 1.500000
v -3.000000 0.000000 1.000000
v -3.000000 1.000000 1.000000
v -3.000000 1.000000 1.000000
v -3.000000 0.000000 1.000000
v -3.000000 0.000000 0.000000
v -3.000000 1.000000 0.000000
v -3.000000 1.000000 0.000000
v -3.000000 0.000000 0.000000
v -3.000000 0.000000 -1.000000
v -3.000000 1.000000 -1.000000
v -3.000000 1.000000 -1.000000
v -3.000000 0.000000 -1.000000
v -3.000000 0.000000 -2.000000
v -3.000000 1.000000 -2.000000
v -3.000000 1.000000 -2.000000
v -3.000000 0.000000 -2.000000
v -3.000000 0.000000 -3.000000
v -3.000000 1.000000 -3.000000
vn -0.0000 1.0000 -0.0000
vn -0.0000 -1.0000 -0.0000
vn -0.0000 -0.0000 -1.0000
vn -0.0000 -0.0000 1.0000
vn -0.7071 -0.0000 0.7071
vn 1.0000 -0.0000 -0.0000
vn -1.0000 -0.0000 -0.0000
vt 0.125000 0.875000
vt 0.000000 0.875000
vt 0.000000 0.750000
vt 0.125000 0.750000
vt 0.625000 0.875000
vt 0.500000 0.875000
vt 0.500000 0.750000
vt 0.625000 0.750000
vt 0.375000 0.875000
vt 0.375000 0.750000
vt 0.125000 1.000000
vt 0.250000 1.000000
vt 0.250000 0.875000
vt 0.625000 1.000000
vt 0.500000 1.000000
s 0
usemtl M_City_Road_Voxel_png.009
f 3/1/1 2/2/1 1/3/1
f 1/3/1 4/4/1 3/1/1
f 7/1/1 6/2/1 5/3/1
f 5/3/1 8/4/1 7/1/1
f 11/1/1 10/2/1 9/3/1
f 9/3/1 12/4/1 11/1/1
f 15/1/1 14/2/1 13/3/1
f 13/3/1 16/4/1 15/1/1
f 19/1/1 18/2/1 17/3/1
f 17/3/1 20/4/1 19/1/1
f 23/1/1 22/2/1 21/3/1
f 21/3/1 24/4/1 23/1/1
f 27/1/1 26/2/1 25/3/1
f 25/3/1 28/4/1 27/1/1
f 31/1/1 30/2/1 29/3/1
f 29/3/1 32/4/1 31/1/1
f 35/1/1 34/2/1 33/3/1
f 33/3/1 36/4/1 35/1/1
f 39/1/1 38/2/1 37/3/1
f 37/3/1 40/4/1 39/1/1
f 43/5/1 42/6/1 41/7/1
f 41/7/1 44/8/1 43/5/1
f 47/5/1 46/6/1 45/7/1
f 45/7/1 48/8/1 47/5/1
f 51/1/1 50/2/1 49/3/1
f 49/3/1 52/4/1 51/1/1
f 55/1/1 54/2/1 53/3/1
f 53/3/1 56/4/1 55/1/1
f 59/1/1 58/2/1 57/3/1
f 57/3/1 60/4/1 59/1/1
f 63/1/1 62/2/1 61/3/1
f 61/3/1 64/4/1 63/1/1
f 67/1/1 66/2/1 65/3/1
f 65/3/1 68/4/1 67/1/1
f 71/6/1 70/9/1 69/10/1
f 69/10/1 72/7/1 71/6/1
f 75/1/1 74/2/1 73/3/1
f 73/3/1 76/4/1 75/1/1
f 79/1/1 78/2/1 77/3/1
f 77/3/1 80/4/1 79/1/1
f 83/1/1 82/2/1 81/3/1
f 81/3/1 84/4/1 83/1/1
f 87/1/1 86/2/1 85/3/1
f 85/3/1 88/4/1 87/1/1
f 91/6/1 90/9/1 89/10/1
f 89/10/1 92/7/1 91/6/1
f 95/1/1 94/2/1 93/3/1
f 93/3/1 96/4/1 95/1/1
f 99/1/1 98/2/1 97/3/1
f 97/3/1 100/4/1 99/1/1
f 103/11/2 102/12/2 101/13/2
f 101/13/2 104/1/2 103/11/2
f 107/11/2 106/12/2 105/13/2
f 105/13/2 108/1/2 107/11/2
f 111/11/2 110/12/2 109/13/2
f 109/13/2 112/1/2 111/11/2
f 115/11/2 114/12/2 113/13/2
f 113/13/2 116/1/2 115/11/2
s 1
f 120/11/2 119/12/2 118/13/2
s 0
f 117/13/2 122/1/2 121/11/2
f 125/11/2 124/12/2 123/13/2
f 123/13/2 126/1/2 125/11/2
f 129/11/2 128/12/2 127/13/2
f 127/13/2 130/1/2 129/11/2
f 133/11/2 132/12/2 131/13/2
f 131/13/2 134/1/2 133/11/2
f 137/11/2 136/12/2 135/13/2
f 135/13/2 138/1/2 137/11/2
f 141/11/2 140/12/2 139/13/2
f 139/13/2 142/1/2 141/11/2
f 145/11/2 144/12/2 143/13/2
f 143/13/2 146/1/2 145/11/2
f 149/11/2 148/12/2 147/13/2
f 147/13/2 150/1/2 149/11/2
f 153/11/2 152/12/2 151/13/2
f 151/13/2 154/1/2 153/11/2
f 157/11/2 156/12/2 155/13/2
f 155/13/2 158/1/2 157/11/2
f 161/11/2 160/12/2 159/13/2
f 159/13/2 162/1/2 161/11/2
f 165/11/2 164/12/2 163/13/2
f 163/13/2 166/1/2 165/11/2
f 169/11/2 168/12/2 167/13/2
f 167/13/2 170/1/2 169/11/2
f 173/11/2 172/12/2 171/13/2
f 171/13/2 174/1/2 173/11/2
f 177/11/2 176/12/2 175/13/2
f 175/13/2 178/1/2 177/11/2
f 181/11/2 180/12/2 179/13/2
f 179/13/2 182/1/2 181/11/2
f 185/11/2 184/12/2 183/13/2
f 183/13/2 186/1/2 185/11/2
f 189/11/2 188/12/2 187/13/2
f 187/13/2 190/1/2 189/11/2
f 193/11/2 192/12/2 191/13/2
f 191/13/2 194/1/2 193/11/2
f 197/11/2 196/12/2 195/13/2
f 195/13/2 198/1/2 197/11/2
f 201/11/2 200/12/2 199/13/2
f 199/13/2 202/1/2 201/11/2
f 205/6/3 204/5/3 203/14/3
f 203/14/3 206/15/3 205/6/3
f 209/6/3 208/5/3 207/14/3
f 207/14/3 210/15/3 209/6/3
f 213/6/3 212/5/3 211/14/3
f 211/14/3 214/15/3 213/6/3
f 217/6/3 216/5/3 215/14/3
f 215/14/3 218/15/3 217/6/3
f 221/6/3 220/5/3 219/14/3
f 219/14/3 222/15/3 221/6/3
f 225/5/4 224/6/4 223/15/4
f 223/15/4 226/14/4 225/5/4
f 229/5/4 228/6/4 227/15/4
f 227/15/4 230/14/4 229/5/4
f 233/5/4 232/6/4 231/15/4
f 231/15/4 234/14/4 233/5/4
f 237/5/4 236/6/4 235/15/4
f 235/15/4 238/14/4 237/5/4
f 241/5/5 240/6/5 239/15/5
f 239/15/5 242/14/5 241/5/5
f 245/6/6 244/5/6 243/14/6
f 243/14/6 246/15/6 245/6/6
f 249/6/6 248/5/6 247/14/6
f 247/14/6 250/15/6 249/6/6
f 253/6/6 252/5/6 251/14/6
f 251/14/6 254/15/6 253/6/6
f 257/6/6 256/5/6 255/14/6
f 255/14/6 258/15/6 257/6/6
f 261/6/6 260/5/6 259/14/6
f 259/14/6 262/15/6 261/6/6
f 265/5/5 264/6/5 263/15/5
f 263/15/5 266/14/5 265/5/5
f 269/5/7 268/6/7 267/15/7
f 267/15/7 270/14/7 269/5/7
f 273/5/7 272/6/7 271/15/7
f 271/15/7 274/14/7 273/5/7
f 277/5/7 276/6/7 275/15/7
f 275/15/7 278/14/7 277/5/7
f 281/5/7 280/6/7 279/15/7
f 279/15/7 282/14/7 281/5/7
