# Blender 4.0.2
# www.blender.org
mtllib RoadCorner4.mtl
o CUBE1
v 2.000000 1.000000 1.000000
v 1.500000 1.000000 1.500000
v 1.000000 1.000000 2.000000
v 1.000000 1.000000 1.000000
v 1.000000 1.000000 1.000000
v 1.000000 1.000000 2.000000
v 0.000000 1.000000 2.000000
v 0.000000 1.000000 1.000000
v 0.000000 1.000000 1.000000
v 0.000000 1.000000 2.000000
v -1.000000 1.000000 2.000000
v -1.000000 1.000000 1.000000
v -1.000000 1.000000 1.000000
v -1.000000 1.000000 2.000000
v -2.000000 1.000000 2.000000
v -2.000000 1.000000 1.000000
v -2.000000 1.000000 1.000000
v -2.000000 1.000000 2.000000
v -3.000000 1.000000 2.000000
v -3.000000 1.000000 1.000000
v 2.000000 1.000000 0.000000
v 2.000000 1.000000 1.000000
v 1.000000 1.000000 1.000000
v 1.000000 1.000000 0.000000
v 1.000000 1.000000 0.000000
v 1.000000 1.000000 1.000000
v 0.000000 1.000000 1.000000
v 0.000000 1.000000 0.000000
v 0.000000 1.000000 0.000000
v 0.000000 1.000000 1.000000
v -1.000000 1.000000 1.000000
v -1.000000 1.000000 0.000000
v -1.000000 1.000000 0.000000
v -1.000000 1.000000 1.000000
v -2.000000 1.000000 1.000000
v -2.000000 1.000000 0.000000
v -2.000000 1.000000 0.000000
v -2.000000 1.000000 1.000000
v -3.000000 1.000000 1.000000
v -3.000000 1.000000 0.000000
v 2.000000 1.000000 -1.000000
v 2.000000 1.000000 0.000000
v 1.000000 1.000000 0.000000
v 1.000000 1.000000 -1.000000
v 1.000000 1.000000 -1.000000
v 1.000000 1.000000 0.000000
v 0.000000 1.000000 0.000000
v 0.000000 1.000000 -1.000000
v 0.000000 1.000000 -1.000000
v 0.000000 1.000000 0.000000
v -1.000000 1.000000 0.000000
v -1.000000 1.000000 -1.000000
v -1.000000 1.000000 -1.000000
v -1.000000 1.000000 0.000000
v -2.000000 1.000000 0.000000
v -2.000000 1.000000 -1.000000
v -2.000000 1.000000 -1.000000
v -2.000000 1.000000 0.000000
v -3.000000 1.000000 0.000000
v -3.000000 1.000000 -1.000000
v 2.000000 1.000000 -2.000000
v 2.000000 1.000000 -1.000000
v 1.000000 1.000000 -1.000000
v 1.000000 1.000000 -2.000000
v 1.000000 1.000000 -2.000000
v 1.000000 1.000000 -1.000000
v 0.000000 1.000000 -1.000000
v 0.000000 1.000000 -2.000000
v 0.000000 1.000000 -2.000000
v 0.000000 1.000000 -1.000000
v -1.000000 1.000000 -1.000000
v -1.000000 1.000000 -2.000000
v -1.000000 1.000000 -2.000000
v -1.000000 1.000000 -1.000000
v -2.000000 1.000000 -1.000000
v -2.000000 1.000000 -2.000000
v -2.000000 1.000000 -2.000000
v -2.000000 1.000000 -1.000000
v -3.000000 1.000000 -1.000000
v -3.000000 1.000000 -2.000000
v 2.000000 1.000000 -3.000000
v 2.000000 1.000000 -2.000000
v 1.000000 1.000000 -2.000000
v 1.000000 1.000000 -3.000000
v 1.000000 1.000000 -3.000000
v 1.000000 1.000000 -2.000000
v 0.000000 1.000000 -2.000000
v 0.000000 1.000000 -3.000000
v 0.000000 1.000000 -3.000000
v 0.000000 1.000000 -2.000000
v -1.000000 1.000000 -2.000000
v -1.000000 1.000000 -3.000000
v -1.000000 1.000000 -3.000000
v -1.000000 1.000000 -2.000000
v -2.000000 1.000000 -2.000000
v -2.000000 1.000000 -3.000000
v -2.000000 1.000000 -3.000000
v -2.000000 1.000000 -2.000000
v -3.000000 1.000000 -2.000000
v -3.000000 1.000000 -3.000000
v 1.000000 0.000000 1.000000
v 1.000000 0.000000 2.000000
v 1.500000 0.000000 1.500000
v 2.000000 0.000000 1.000000
v 0.000000 0.000000 1.000000
v 0.000000 0.000000 2.000000
v 1.000000 0.000000 2.000000
v 1.000000 0.000000 1.000000
v -1.000000 0.000000 1.000000
v -1.000000 0.000000 2.000000
v 0.000000 0.000000 2.000000
v 0.000000 0.000000 1.000000
v -2.000000 0.000000 1.000000
v -2.000000 0.000000 2.000000
v -1.000000 0.000000 2.000000
v -1.000000 0.000000 1.000000
v -3.000000 0.000000 1.000000
v -3.000000 0.000000 2.000000
v -2.000000 0.000000 2.000000
v -2.000000 0.000000 1.000000
v 1.000000 0.000000 0.000000
v 1.000000 0.000000 1.000000
v 2.000000 0.000000 1.000000
v 2.000000 0.000000 0.000000
v 0.000000 0.000000 0.000000
v 0.000000 0.000000 1.000000
v 1.000000 0.000000 1.000000
v 1.000000 0.000000 0.000000
v -1.000000 0.000000 0.000000
v -1.000000 0.000000 1.000000
v 0.000000 0.000000 1.000000
v 0.000000 0.000000 0.000000
v -2.000000 0.000000 0.000000
v -2.000000 0.000000 1.000000
v -1.000000 0.000000 1.000000
v -1.000000 0.000000 0.000000
v -3.000000 0.000000 0.000000
v -3.000000 0.000000 1.000000
v -2.000000 0.000000 1.000000
v -2.000000 0.000000 0.000000
v 1.000000 0.000000 -1.000000
v 1.000000 0.000000 0.000000
v 2.000000 0.000000 0.000000
v 2.000000 0.000000 -1.000000
v 0.000000 0.000000 -1.000000
v 0.000000 0.000000 0.000000
v 1.000000 0.000000 0.000000
v 1.000000 0.000000 -1.000000
v -1.000000 0.000000 -1.000000
v -1.000000 0.000000 0.000000
v 0.000000 0.000000 0.000000
v 0.000000 0.000000 -1.000000
v -2.000000 0.000000 -1.000000
v -2.000000 0.000000 0.000000
v -1.000000 0.000000 0.000000
v -1.000000 0.000000 -1.000000
v -3.000000 0.000000 -1.000000
v -3.000000 0.000000 0.000000
v -2.000000 0.000000 0.000000
v -2.000000 0.000000 -1.000000
v 1.000000 0.000000 -2.000000
v 1.000000 0.000000 -1.000000
v 2.000000 0.000000 -1.000000
v 2.000000 0.000000 -2.000000
v 0.000000 0.000000 -2.000000
v 0.000000 0.000000 -1.000000
v 1.000000 0.000000 -1.000000
v 1.000000 0.000000 -2.000000
v -1.000000 0.000000 -2.000000
v -1.000000 0.000000 -1.000000
v 0.000000 0.000000 -1.000000
v 0.000000 0.000000 -2.000000
v -2.000000 0.000000 -2.000000
v -2.000000 0.000000 -1.000000
v -1.000000 0.000000 -1.000000
v -1.000000 0.000000 -2.000000
v -3.000000 0.000000 -2.000000
v -3.000000 0.000000 -1.000000
v -2.000000 0.000000 -1.000000
v -2.000000 0.000000 -2.000000
v 1.000000 0.000000 -3.000000
v 1.000000 0.000000 -2.000000
v 2.000000 0.000000 -2.000000
v 2.000000 0.000000 -3.000000
v 0.000000 0.000000 -3.000000
v 0.000000 0.000000 -2.000000
v 1.000000 0.000000 -2.000000
v 1.000000 0.000000 -3.000000
v -1.000000 0.000000 -3.000000
v -1.000000 0.000000 -2.000000
v 0.000000 0.000000 -2.000000
v 0.000000 0.000000 -3.000000
v -2.000000 0.000000 -3.000000
v -2.000000 0.000000 -2.000000
v -1.000000 0.000000 -2.000000
v -1.000000 0.000000 -3.000000
v -3.000000 0.000000 -3.000000
v -3.000000 0.000000 -2.000000
v -2.000000 0.000000 -2.000000
v -2.000000 0.000000 -3.000000
v 1.000000 1.000000 -3.000000
v 1.000000 0.000000 -3.000000
v 2.000000 0.000000 -3.000000
v 2.000000 1.000000 -3.000000
v 0.000000 1.000000 -3.000000
v 0.000000 0.000000 -3.000000
v 1.000000 0.000000 -3.000000
v 1.000000 1.000000 -3.000000
v -1.000000 1.000000 -3.000000
v -1.000000 0.000000 -3.000000
v 0.000000 0.000000 -3.000000
v 0.000000 1.000000 -3.000000
v -2.000000 1.000000 -3.000000
v -2.000000 0.000000 -3.000000
v -1.000000 0.000000 -3.000000
v -1.000000 1.000000 -3.000000
v -3.000000 1.000000 -3.000000
v -3.000000 0.000000 -3.000000
v -2.000000 0.000000 -3.000000
v -2.000000 1.000000 -3.000000
v 1.500000 1.000000 1.500000
v 1.500000 0.000000 1.500000
v 1.000000 0.000000 2.000000
v 1.000000 1.000000 2.000000
v 1.000000 1.000000 2.000000
v 1.000000 0.000000 2.000000
v 0.000000 0.000000 2.000000
v 0.000000 1.000000 2.000000
v 0.000000 1.000000 2.000000
v 0.000000 0.000000 2.000000
v -1.000000 0.000000 2.000000
v -1.000000 1.000000 2.000000
v -1.000000 1.000000 2.000000
v -1.000000 0.000000 2.000000
v -2.000000 0.000000 2.000000
v -2.000000 1.000000 2.000000
v -2.000000 1.000000 2.000000
v -2.000000 0.000000 2.000000
v -3.000000 0.000000 2.000000
v -3.000000 1.000000 2.000000
v 2.000000 1.000000 1.000000
v 2.000000 0.000000 1.000000
v 1.500000 0.000000 1.500000
v 1.500000 1.000000 1.500000
v 2.000000 1.000000 0.000000
v 2.000000 0.000000 0.000000
v 2.000000 0.000000 1.000000
v 2.000000 1.000000 1.000000
v 2.000000 1.000000 -1.000000
v 2.000000 0.000000 -1.000000
v 2.000000 0.000000 0.000000
v 2.000000 1.000000 0.000000
v 2.000000 1.000000 -2.000000
v 2.000000 0.000000 -2.000000
v 2.000000 0.000000 -1.000000
v 2.000000 1.000000 -1.000000
v 2.000000 1.000000 -3.000000
v 2.000000 0.000000 -3.000000
v 2.000000 0.000000 -2.000000
v 2.000000 1.000000 -2.000000
v -3.000000 1.000000 2.000000
v -3.000000 0.000000 2.000000
v -3.000000 0.000000 1.000000
v -3.000000 1.000000 1.000000
v -3.000000 1.000000 1.000000
v -3.000000 0.000000 1.000000
v -3.000000 0.000000 0.000000
v -3.000000 1.000000 0.000000
v -3.000000 1.000000 0.000000
v -3.000000 0.000000 0.000000
v -3.000000 0.000000 -1.000000
v -3.000000 1.000000 -1.000000
v -3.000000 1.000000 -1.000000
v -3.000000 0.000000 -1.000000
v -3.000000 0.000000 -2.000000
v -3.000000 1.000000 -2.000000
v -3.000000 1.000000 -2.000000
v -3.000000 0.000000 -2.000000
v -3.000000 0.000000 -3.000000
v -3.000000 1.000000 -3.000000
vn -0.0000 1.0000 -0.0000
vn -0.0000 -1.0000 -0.0000
vn -0.0000 -0.0000 -1.0000
vn 0.7071 -0.0000 0.7071
vn -0.0000 -0.0000 1.0000
vn 1.0000 -0.0000 -0.0000
vn -1.0000 -0.0000 -0.0000
vt 0.125000 0.875000
vt 0.000000 0.875000
vt 0.000000 0.750000
vt 0.125000 0.750000
vt 0.625000 0.875000
vt 0.500000 0.875000
vt 0.500000 0.750000
vt 0.625000 0.750000
vt 0.375000 0.875000
vt 0.375000 0.750000
vt 0.125000 1.000000
vt 0.250000 1.000000
vt 0.250000 0.875000
vt 0.625000 1.000000
vt 0.500000 1.000000
s 0
usemtl M_City_Road_Voxel_png.015
f 3/1/1 2/2/1 1/3/1
f 1/3/1 4/4/1 3/1/1
f 7/1/1 6/2/1 5/3/1
f 5/3/1 8/4/1 7/1/1
f 11/1/1 10/2/1 9/3/1
f 9/3/1 12/4/1 11/1/1
f 15/1/1 14/2/1 13/3/1
f 13/3/1 16/4/1 15/1/1
f 19/1/1 18/2/1 17/3/1
f 17/3/1 20/4/1 19/1/1
f 23/1/1 22/2/1 21/3/1
f 21/3/1 24/4/1 23/1/1
f 27/1/1 26/2/1 25/3/1
f 25/3/1 28/4/1 27/1/1
f 31/1/1 30/2/1 29/3/1
f 29/3/1 32/4/1 31/1/1
f 35/1/1 34/2/1 33/3/1
f 33/3/1 36/4/1 35/1/1
f 39/1/1 38/2/1 37/3/1
f 37/3/1 40/4/1 39/1/1
f 43/1/1 42/2/1 41/3/1
f 41/3/1 44/4/1 43/1/1
f 47/1/1 46/2/1 45/3/1
f 45/3/1 48/4/1 47/1/1
f 51/1/1 50/2/1 49/3/1
f 49/3/1 52/4/1 51/1/1
f 55/5/1 54/6/1 53/7/1
f 53/7/1 56/8/1 55/5/1
f 59/5/1 58/6/1 57/7/1
f 57/7/1 60/8/1 59/5/1
f 63/1/1 62/2/1 61/3/1
f 61/3/1 64/4/1 63/1/1
f 67/1/1 66/2/1 65/3/1
f 65/3/1 68/4/1 67/1/1
f 71/6/1 70/9/1 69/10/1
f 69/10/1 72/7/1 71/6/1
f 75/1/1 74/2/1 73/3/1
f 73/3/1 76/4/1 75/1/1
f 79/1/1 78/2/1 77/3/1
f 77/3/1 80/4/1 79/1/1
f 83/1/1 82/2/1 81/3/1
f 81/3/1 84/4/1 83/1/1
f 87/1/1 86/2/1 85/3/1
f 85/3/1 88/4/1 87/1/1
f 91/6/1 90/9/1 89/10/1
f 89/10/1 92/7/1 91/6/1
f 95/1/1 94/2/1 93/3/1
f 93/3/1 96/4/1 95/1/1
f 99/1/1 98/2/1 97/3/1
f 97/3/1 100/4/1 99/1/1
f 103/11/2 102/12/2 101/13/2
f 101/13/2 104/1/2 103/11/2
f 107/11/2 106/12/2 105/13/2
f 105/13/2 108/1/2 107/11/2
f 111/11/2 110/12/2 109/13/2
f 109/13/2 112/1/2 111/11/2
f 115/11/2 114/12/2 113/13/2
f 113/13/2 116/1/2 115/11/2
f 119/11/2 118/12/2 117/13/2
f 117/13/2 120/1/2 119/11/2
f 123/11/2 122/12/2 121/13/2
f 121/13/2 124/1/2 123/11/2
f 127/11/2 126/12/2 125/13/2
f 125/13/2 128/1/2 127/11/2
f 131/11/2 130/12/2 129/13/2
f 129/13/2 132/1/2 131/11/2
f 135/11/2 134/12/2 133/13/2
f 133/13/2 136/1/2 135/11/2
f 139/11/2 138/12/2 137/13/2
f 137/13/2 140/1/2 139/11/2
f 143/11/2 142/12/2 141/13/2
f 141/13/2 144/1/2 143/11/2
f 147/11/2 146/12/2 145/13/2
f 145/13/2 148/1/2 147/11/2
f 151/11/2 150/12/2 149/13/2
f 149/13/2 152/1/2 151/11/2
f 155/11/2 154/12/2 153/13/2
f 153/13/2 156/1/2 155/11/2
f 159/11/2 158/12/2 157/13/2
f 157/13/2 160/1/2 159/11/2
f 163/11/2 162/12/2 161/13/2
f 161/13/2 164/1/2 163/11/2
f 167/11/2 166/12/2 165/13/2
f 165/13/2 168/1/2 167/11/2
f 171/11/2 170/12/2 169/13/2
f 169/13/2 172/1/2 171/11/2
f 175/11/2 174/12/2 173/13/2
f 173/13/2 176/1/2 175/11/2
f 179/11/2 178/12/2 177/13/2
f 177/13/2 180/1/2 179/11/2
f 183/11/2 182/12/2 181/13/2
f 181/13/2 184/1/2 183/11/2
f 187/11/2 186/12/2 185/13/2
f 185/13/2 188/1/2 187/11/2
f 191/11/2 190/12/2 189/13/2
f 189/13/2 192/1/2 191/11/2
f 195/11/2 194/12/2 193/13/2
f 193/13/2 196/1/2 195/11/2
f 199/11/2 198/12/2 197/13/2
f 197/13/2 200/1/2 199/11/2
f 203/6/3 202/5/3 201/14/3
f 201/14/3 204/15/3 203/6/3
f 207/6/3 206/5/3 205/14/3
f 205/14/3 208/15/3 207/6/3
f 211/6/3 210/5/3 209/14/3
f 209/14/3 212/15/3 211/6/3
f 215/6/3 214/5/3 213/14/3
f 213/14/3 216/15/3 215/6/3
f 219/6/3 218/5/3 217/14/3
f 217/14/3 220/15/3 219/6/3
f 223/5/4 222/6/4 221/15/4
f 221/15/4 224/14/4 223/5/4
f 227/5/5 226/6/5 225/15/5
f 225/15/5 228/14/5 227/5/5
f 231/5/5 230/6/5 229/15/5
f 229/15/5 232/14/5 231/5/5
f 235/5/5 234/6/5 233/15/5
f 233/15/5 236/14/5 235/5/5
f 239/5/5 238/6/5 237/15/5
f 237/15/5 240/14/5 239/5/5
f 243/6/4 242/5/4 241/14/4
f 241/14/4 244/15/4 243/6/4
f 247/6/6 246/5/6 245/14/6
f 245/14/6 248/15/6 247/6/6
f 251/6/6 250/5/6 249/14/6
f 249/14/6 252/15/6 251/6/6
f 255/6/6 254/5/6 253/14/6
f 253/14/6 256/15/6 255/6/6
f 259/6/6 258/5/6 257/14/6
f 257/14/6 260/15/6 259/6/6
f 263/5/7 262/6/7 261/15/7
f 261/15/7 264/14/7 263/5/7
f 267/5/7 266/6/7 265/15/7
f 265/15/7 268/14/7 267/5/7
f 271/5/7 270/6/7 269/15/7
f 269/15/7 272/14/7 271/5/7
f 275/5/7 274/6/7 273/15/7
f 273/15/7 276/14/7 275/5/7
f 279/5/7 278/6/7 277/15/7
f 277/15/7 280/14/7 279/5/7
