# Blender 4.0.2
# www.blender.org
mtllib RoadPillar.mtl
o CUBE1
v 0.000000 8.000000 -1.000000
v 0.000000 8.000000 0.000000
v -1.000000 8.000000 0.000000
v -1.000000 8.000000 -1.000000
v -1.000000 0.000000 -1.000000
v -1.000000 0.000000 0.000000
v 0.000000 0.000000 0.000000
v 0.000000 0.000000 -1.000000
v -1.000000 1.000000 -1.000000
v -1.000000 0.000000 -1.000000
v 0.000000 0.000000 -1.000000
v 0.000000 1.000000 -1.000000
v -1.000000 2.000000 -1.000000
v -1.000000 1.000000 -1.000000
v 0.000000 1.000000 -1.000000
v 0.000000 2.000000 -1.000000
v -1.000000 3.000000 -1.000000
v -1.000000 2.000000 -1.000000
v 0.000000 2.000000 -1.000000
v 0.000000 3.000000 -1.000000
v -1.000000 4.000000 -1.000000
v -1.000000 3.000000 -1.000000
v 0.000000 3.000000 -1.000000
v 0.000000 4.000000 -1.000000
v -1.000000 5.000000 -1.000000
v -1.000000 4.000000 -1.000000
v 0.000000 4.000000 -1.000000
v 0.000000 5.000000 -1.000000
v -1.000000 6.000000 -1.000000
v -1.000000 5.000000 -1.000000
v 0.000000 5.000000 -1.000000
v 0.000000 6.000000 -1.000000
v -1.000000 7.000000 -1.000000
v -1.000000 6.000000 -1.000000
v 0.000000 6.000000 -1.000000
v 0.000000 7.000000 -1.000000
v -1.000000 8.000000 -1.000000
v -1.000000 7.000000 -1.000000
v 0.000000 7.000000 -1.000000
v 0.000000 8.000000 -1.000000
v 0.000000 1.000000 0.000000
v 0.000000 0.000000 0.000000
v -1.000000 0.000000 0.000000
v -1.000000 1.000000 0.000000
v 0.000000 2.000000 0.000000
v 0.000000 1.000000 0.000000
v -1.000000 1.000000 0.000000
v -1.000000 2.000000 0.000000
v 0.000000 3.000000 0.000000
v 0.000000 2.000000 0.000000
v -1.000000 2.000000 0.000000
v -1.000000 3.000000 0.000000
v 0.000000 4.000000 0.000000
v 0.000000 3.000000 0.000000
v -1.000000 3.000000 0.000000
v -1.000000 4.000000 0.000000
v 0.000000 5.000000 0.000000
v 0.000000 4.000000 0.000000
v -1.000000 4.000000 0.000000
v -1.000000 5.000000 0.000000
v 0.000000 6.000000 0.000000
v 0.000000 5.000000 0.000000
v -1.000000 5.000000 0.000000
v -1.000000 6.000000 0.000000
v 0.000000 7.000000 0.000000
v 0.000000 6.000000 0.000000
v -1.000000 6.000000 0.000000
v -1.000000 7.000000 0.000000
v 0.000000 8.000000 0.000000
v 0.000000 7.000000 0.000000
v -1.000000 7.000000 0.000000
v -1.000000 8.000000 0.000000
v 0.000000 1.000000 -1.000000
v 0.000000 0.000000 -1.000000
v 0.000000 0.000000 0.000000
v 0.000000 1.000000 0.000000
v 0.000000 2.000000 -1.000000
v 0.000000 1.000000 -1.000000
v 0.000000 1.000000 0.000000
v 0.000000 2.000000 0.000000
v 0.000000 3.000000 -1.000000
v 0.000000 2.000000 -1.000000
v 0.000000 2.000000 0.000000
v 0.000000 3.000000 0.000000
v 0.000000 4.000000 -1.000000
v 0.000000 3.000000 -1.000000
v 0.000000 3.000000 0.000000
v 0.000000 4.000000 0.000000
v 0.000000 5.000000 -1.000000
v 0.000000 4.000000 -1.000000
v 0.000000 4.000000 0.000000
v 0.000000 5.000000 0.000000
v 0.000000 6.000000 -1.000000
v 0.000000 5.000000 -1.000000
v 0.000000 5.000000 0.000000
v 0.000000 6.000000 0.000000
v 0.000000 7.000000 -1.000000
v 0.000000 6.000000 -1.000000
v 0.000000 6.000000 0.000000
v 0.000000 7.000000 0.000000
v 0.000000 8.000000 -1.000000
v 0.000000 7.000000 -1.000000
v 0.000000 7.000000 0.000000
v 0.000000 8.000000 0.000000
v -1.000000 1.000000 0.000000
v -1.000000 0.000000 0.000000
v -1.000000 0.000000 -1.000000
v -1.000000 1.000000 -1.000000
v -1.000000 2.000000 0.000000
v -1.000000 1.000000 0.000000
v -1.000000 1.000000 -1.000000
v -1.000000 2.000000 -1.000000
v -1.000000 3.000000 0.000000
v -1.000000 2.000000 0.000000
v -1.000000 2.000000 -1.000000
v -1.000000 3.000000 -1.000000
v -1.000000 4.000000 0.000000
v -1.000000 3.000000 0.000000
v -1.000000 3.000000 -1.000000
v -1.000000 4.000000 -1.000000
v -1.000000 5.000000 0.000000
v -1.000000 4.000000 0.000000
v -1.000000 4.000000 -1.000000
v -1.000000 5.000000 -1.000000
v -1.000000 6.000000 0.000000
v -1.000000 5.000000 0.000000
v -1.000000 5.000000 -1.000000
v -1.000000 6.000000 -1.000000
v -1.000000 7.000000 0.000000
v -1.000000 6.000000 0.000000
v -1.000000 6.000000 -1.000000
v -1.000000 7.000000 -1.000000
v -1.000000 8.000000 0.000000
v -1.000000 7.000000 0.000000
v -1.000000 7.000000 -1.000000
v -1.000000 8.000000 -1.000000
vn -0.0000 1.0000 -0.0000
vn -0.0000 -1.0000 -0.0000
vn -0.0000 -0.0000 -1.0000
vn -0.0000 -0.0000 1.0000
vn 1.0000 -0.0000 -0.0000
vn -1.0000 -0.0000 -0.0000
vt 0.250000 1.000000
vt 0.125000 1.000000
vt 0.125000 0.875000
vt 0.250000 0.875000
vt 0.375000 0.500000
vt 0.500000 0.500000
vt 0.500000 0.625000
vt 0.375000 0.625000
s 0
usemtl M_City_Road_Voxel_png.016
f 3/1/1 2/2/1 1/3/1
f 1/3/1 4/4/1 3/1/1
f 7/2/2 6/1/2 5/4/2
f 5/4/2 8/3/2 7/2/2
f 11/5/3 10/6/3 9/7/3
f 9/7/3 12/8/3 11/5/3
f 15/5/3 14/6/3 13/7/3
f 13/7/3 16/8/3 15/5/3
f 19/5/3 18/6/3 17/7/3
f 17/7/3 20/8/3 19/5/3
f 23/5/3 22/6/3 21/7/3
f 21/7/3 24/8/3 23/5/3
f 27/5/3 26/6/3 25/7/3
f 25/7/3 28/8/3 27/5/3
f 31/5/3 30/6/3 29/7/3
f 29/7/3 32/8/3 31/5/3
f 35/5/3 34/6/3 33/7/3
f 33/7/3 36/8/3 35/5/3
f 39/5/3 38/6/3 37/7/3
f 37/7/3 40/8/3 39/5/3
f 43/6/4 42/5/4 41/8/4
f 41/8/4 44/7/4 43/6/4
f 47/6/4 46/5/4 45/8/4
f 45/8/4 48/7/4 47/6/4
f 51/6/4 50/5/4 49/8/4
f 49/8/4 52/7/4 51/6/4
f 55/6/4 54/5/4 53/8/4
f 53/8/4 56/7/4 55/6/4
f 59/6/4 58/5/4 57/8/4
f 57/8/4 60/7/4 59/6/4
f 63/6/4 62/5/4 61/8/4
f 61/8/4 64/7/4 63/6/4
f 67/6/4 66/5/4 65/8/4
f 65/8/4 68/7/4 67/6/4
f 71/6/4 70/5/4 69/8/4
f 69/8/4 72/7/4 71/6/4
f 75/5/5 74/6/5 73/7/5
f 73/7/5 76/8/5 75/5/5
f 79/5/5 78/6/5 77/7/5
f 77/7/5 80/8/5 79/5/5
f 83/5/5 82/6/5 81/7/5
f 81/7/5 84/8/5 83/5/5
f 87/5/5 86/6/5 85/7/5
f 85/7/5 88/8/5 87/5/5
f 91/5/5 90/6/5 89/7/5
f 89/7/5 92/8/5 91/5/5
f 95/5/5 94/6/5 93/7/5
f 93/7/5 96/8/5 95/5/5
f 99/5/5 98/6/5 97/7/5
f 97/7/5 100/8/5 99/5/5
f 103/5/5 102/6/5 101/7/5
f 101/7/5 104/8/5 103/5/5
f 107/6/6 106/5/6 105/8/6
f 105/8/6 108/7/6 107/6/6
f 111/6/6 110/5/6 109/8/6
f 109/8/6 112/7/6 111/6/6
f 115/6/6 114/5/6 113/8/6
f 113/8/6 116/7/6 115/6/6
f 119/6/6 118/5/6 117/8/6
f 117/8/6 120/7/6 119/6/6
f 123/6/6 122/5/6 121/8/6
f 121/8/6 124/7/6 123/6/6
f 127/6/6 126/5/6 125/8/6
f 125/8/6 128/7/6 127/6/6
f 131/6/6 130/5/6 129/8/6
f 129/8/6 132/7/6 131/6/6
f 135/6/6 134/5/6 133/8/6
f 133/8/6 136/7/6 135/6/6
