mtllib Sidewalk4.mtl
# Minecramps Model Editor generated obj
# www.davididev.com
# ----Generated Normals----
# ----Model----
o SIDEWALK-1
v -5 2 -2
v -5 2 -1
v -5 2 0
v -4 2 -2
v -4 2 -1
v -4 2 0
v -3 2 -2
v -3 2 -1
v -3 2 0
v -2 2 -2
v -2 2 -1
v -2 2 0
v -1 2 -2
v -1 2 -1
v -1 2 0
v 0 2 -2
v 0 2 -1
v 0 2 0
v 1 2 -2
v 1 2 -1
v 1 2 0
v 2 2 -2
v 2 2 -1
v 2 2 0
v 3 2 -2
v 3 2 -1
v 3 2 0
v 4 2 -2
v 4 2 -1
v 4 2 0
v 5 2 -2
v 5 2 -1
v 5 2 0
usemtl M_City_Road_Voxel_png
vt 0.625 1
vt 0.75 1
vt 0.625 0.875
vt 0.75 0.875
vn 0 -1 0
vn 0 1 0
f 2/3/2 3/1/2 6/2/2 5/4/2
f 5/3/2 6/1/2 9/2/2 8/4/2
f 8/3/2 9/1/2 12/2/2 11/4/2
f 11/3/2 12/1/2 15/2/2 14/4/2
f 14/3/2 15/1/2 18/2/2 17/4/2
f 17/3/2 18/1/2 21/2/2 20/4/2
f 20/3/2 21/1/2 24/2/2 23/4/2
f 23/3/2 24/1/2 27/2/2 26/4/2
f 26/3/2 27/1/2 30/2/2 29/4/2
f 29/3/2 30/1/2 33/2/2 32/4/2
f 1/3/2 2/1/2 5/2/2 4/4/2
f 4/3/2 5/1/2 8/2/2 7/4/2
f 7/3/2 8/1/2 11/2/2 10/4/2
f 10/3/2 11/1/2 14/2/2 13/4/2
f 13/3/2 14/1/2 17/2/2 16/4/2
f 16/3/2 17/1/2 20/2/2 19/4/2
f 19/3/2 20/1/2 23/2/2 22/4/2
f 22/3/2 23/1/2 26/2/2 25/4/2
f 25/3/2 26/1/2 29/2/2 28/4/2
f 28/3/2 29/1/2 32/2/2 31/4/2
v -5 0 -2
v -5 0 -1
v -5 0 0
v -4 0 -2
v -4 0 -1
v -4 0 0
v -3 0 -2
v -3 0 -1
v -3 0 0
v -2 0 -2
v -2 0 -1
v -2 0 0
v -1 0 -2
v -1 0 -1
v -1 0 0
v 0 0 -2
v 0 0 -1
v 0 0 0
v 1 0 -2
v 1 0 -1
v 1 0 0
v 2 0 -2
v 2 0 -1
v 2 0 0
v 3 0 -2
v 3 0 -1
v 3 0 0
v 4 0 -2
v 4 0 -1
v 4 0 0
v 5 0 -2
v 5 0 -1
v 5 0 0
usemtl M_City_Road_Voxel_png
vt 0 1
vt 0.125 1
vt 0 0.875
vt 0.125 0.875
f 38/8/1 39/6/1 36/5/1 35/7/1
f 41/8/1 42/6/1 39/5/1 38/7/1
f 44/8/1 45/6/1 42/5/1 41/7/1
f 47/8/1 48/6/1 45/5/1 44/7/1
f 50/8/1 51/6/1 48/5/1 47/7/1
f 53/8/1 54/6/1 51/5/1 50/7/1
f 56/8/1 57/6/1 54/5/1 53/7/1
f 59/8/1 60/6/1 57/5/1 56/7/1
f 62/8/1 63/6/1 60/5/1 59/7/1
f 65/8/1 66/6/1 63/5/1 62/7/1
f 37/8/1 38/6/1 35/5/1 34/7/1
f 40/8/1 41/6/1 38/5/1 37/7/1
f 43/8/1 44/6/1 41/5/1 40/7/1
f 46/8/1 47/6/1 44/5/1 43/7/1
f 49/8/1 50/6/1 47/5/1 46/7/1
f 52/8/1 53/6/1 50/5/1 49/7/1
f 55/8/1 56/6/1 53/5/1 52/7/1
f 58/8/1 59/6/1 56/5/1 55/7/1
f 61/8/1 62/6/1 59/5/1 58/7/1
f 64/8/1 65/6/1 62/5/1 61/7/1
v -5 2 -2
v -5 1 -2
v -5 0 -2
v -4 2 -2
v -4 1 -2
v -4 0 -2
v -3 2 -2
v -3 1 -2
v -3 0 -2
v -2 2 -2
v -2 1 -2
v -2 0 -2
v -1 2 -2
v -1 1 -2
v -1 0 -2
v 0 2 -2
v 0 1 -2
v 0 0 -2
v 1 2 -2
v 1 1 -2
v 1 0 -2
v 2 2 -2
v 2 1 -2
v 2 0 -2
v 3 2 -2
v 3 1 -2
v 3 0 -2
v 4 2 -2
v 4 1 -2
v 4 0 -2
v 5 2 -2
v 5 1 -2
v 5 0 -2
usemtl M_City_Road_Voxel_png
vn 0 0 -1
vn 0 0 1
f 71/6/3 72/8/3 69/7/3 68/5/3
f 74/6/3 75/8/3 72/7/3 71/5/3
f 77/6/3 78/8/3 75/7/3 74/5/3
f 80/6/3 81/8/3 78/7/3 77/5/3
f 83/6/3 84/8/3 81/7/3 80/5/3
f 86/6/3 87/8/3 84/7/3 83/5/3
f 89/6/3 90/8/3 87/7/3 86/5/3
f 92/6/3 93/8/3 90/7/3 89/5/3
f 95/6/3 96/8/3 93/7/3 92/5/3
f 98/6/3 99/8/3 96/7/3 95/5/3
vt 0.5 1
vt 0.5 0.875
f 70/1/3 71/3/3 68/10/3 67/9/3
f 73/1/3 74/3/3 71/10/3 70/9/3
f 76/1/3 77/3/3 74/10/3 73/9/3
f 79/1/3 80/3/3 77/10/3 76/9/3
f 82/1/3 83/3/3 80/10/3 79/9/3
f 85/1/3 86/3/3 83/10/3 82/9/3
f 88/1/3 89/3/3 86/10/3 85/9/3
f 91/1/3 92/3/3 89/10/3 88/9/3
f 94/1/3 95/3/3 92/10/3 91/9/3
f 97/1/3 98/3/3 95/10/3 94/9/3
v -5 2 0
v -5 1 0
v -5 0 0
v -4 2 0
v -4 1 0
v -4 0 0
v -3 2 0
v -3 1 0
v -3 0 0
v -2 2 0
v -2 1 0
v -2 0 0
v -1 2 0
v -1 1 0
v -1 0 0
v 0 2 0
v 0 1 0
v 0 0 0
v 1 2 0
v 1 1 0
v 1 0 0
v 2 2 0
v 2 1 0
v 2 0 0
v 3 2 0
v 3 1 0
v 3 0 0
v 4 2 0
v 4 1 0
v 4 0 0
v 5 2 0
v 5 1 0
v 5 0 0
usemtl M_City_Road_Voxel_png
f 101/5/4 102/7/4 105/8/4 104/6/4
f 104/5/4 105/7/4 108/8/4 107/6/4
f 107/5/4 108/7/4 111/8/4 110/6/4
f 110/5/4 111/7/4 114/8/4 113/6/4
f 113/5/4 114/7/4 117/8/4 116/6/4
f 116/5/4 117/7/4 120/8/4 119/6/4
f 119/5/4 120/7/4 123/8/4 122/6/4
f 122/5/4 123/7/4 126/8/4 125/6/4
f 125/5/4 126/7/4 129/8/4 128/6/4
f 128/5/4 129/7/4 132/8/4 131/6/4
f 100/9/4 101/10/4 104/3/4 103/1/4
f 103/9/4 104/10/4 107/3/4 106/1/4
f 106/9/4 107/10/4 110/3/4 109/1/4
f 109/9/4 110/10/4 113/3/4 112/1/4
f 112/9/4 113/10/4 116/3/4 115/1/4
f 115/9/4 116/10/4 119/3/4 118/1/4
f 118/9/4 119/10/4 122/3/4 121/1/4
f 121/9/4 122/10/4 125/3/4 124/1/4
f 124/9/4 125/10/4 128/3/4 127/1/4
f 127/9/4 128/10/4 131/3/4 130/1/4
v -5 2 0
v -5 1 0
v -5 0 0
v -5 2 -1
v -5 1 -1
v -5 0 -1
v -5 2 -2
v -5 1 -2
v -5 0 -2
usemtl M_City_Road_Voxel_png
vn -1 0 0
vn 1 0 0
f 137/6/5 138/8/5 135/7/5 134/5/5
f 140/6/5 141/8/5 138/7/5 137/5/5
f 136/1/5 137/3/5 134/10/5 133/9/5
f 139/1/5 140/3/5 137/10/5 136/9/5
v 5 2 0
v 5 1 0
v 5 0 0
v 5 2 -1
v 5 1 -1
v 5 0 -1
v 5 2 -2
v 5 1 -2
v 5 0 -2
usemtl M_City_Road_Voxel_png
f 143/5/6 144/7/6 147/8/6 146/6/6
f 146/5/6 147/7/6 150/8/6 149/6/6
f 142/9/6 143/10/6 146/3/6 145/1/6
f 145/9/6 146/10/6 149/3/6 148/1/6
o RAMP-EDGE-1
v -5 2 0
v -5 2 1
v -4 2 0
v -4 2 1
usemtl M_City_Road_Voxel_png
f 151/3/2 152/1/2 154/2/2 153/4/2
v -5 0 0
v -5 0 1
v -4 0 0
v -4 0 1
usemtl M_City_Road_Voxel_png
f 157/8/1 158/6/1 156/5/1 155/7/1
v -5 2 0
v -5 1 0
v -5 0 0
v -4 2 0
v -4 1 0
v -4 0 0
usemtl M_City_Road_Voxel_png
f 163/6/3 164/8/3 161/7/3 160/5/3
f 162/1/3 163/3/3 160/10/3 159/9/3
v -5 2 1
v -5 1 1
v -5 0 1
v -4 2 1
v -4 1 1
v -4 0 1
usemtl M_City_Road_Voxel_png
f 166/5/4 167/7/4 170/8/4 169/6/4
f 165/9/4 166/10/4 169/3/4 168/1/4
v -5 2 1
v -5 1 1
v -5 0 1
v -5 2 0
v -5 1 0
v -5 0 0
usemtl M_City_Road_Voxel_png
f 175/6/5 176/8/5 173/7/5 172/5/5
f 174/1/5 175/3/5 172/10/5 171/9/5
v -4 2 1
v -4 1 1
v -4 0 1
v -4 2 0
v -4 1 0
v -4 0 0
usemtl M_City_Road_Voxel_png
f 178/5/6 179/7/6 182/8/6 181/6/6
f 177/9/6 178/10/6 181/3/6 180/1/6
o RAMP
v -4 2 0
v -4 1.0001 1
v -3 2 0
v -3 1.0001 1
v -2 2 0
v -2 1.0001 1
usemtl M_City_Road_Voxel_png
vn 0 -0.7071421 -0.7070714
vn 0 0.7071421 0.7070714
f 183/3/8 184/1/8 186/2/8 185/4/8
f 185/3/8 186/1/8 188/2/8 187/4/8
v -4 0 0
v -4 0 1
v -3 0 0
v -3 0 1
v -2 0 0
v -2 0 1
usemtl M_City_Road_Voxel_png
f 191/8/1 192/6/1 190/5/1 189/7/1
f 193/8/1 194/6/1 192/5/1 191/7/1
v -4 2 0
v -4 1 0
v -4 0 0
v -3 2 0
v -3 1 0
v -3 0 0
v -2 2 0
v -2 1 0
v -2 0 0
usemtl M_City_Road_Voxel_png
f 199/6/3 200/8/3 197/7/3 196/5/3
f 202/6/3 203/8/3 200/7/3 199/5/3
f 198/6/3 199/8/3 196/7/3 195/5/3
f 201/6/3 202/8/3 199/7/3 198/5/3
v -4 1.0001 1
v -4 1 1
v -4 0 1
v -3 1.0001 1
v -3 1 1
v -3 0 1
v -2 1.0001 1
v -2 1 1
v -2 0 1
usemtl M_City_Road_Voxel_png
f 205/5/4 206/7/4 209/8/4 208/6/4
f 208/5/4 209/7/4 212/8/4 211/6/4
f 204/9/4 205/10/4 208/3/4 207/1/4
f 207/9/4 208/10/4 211/3/4 210/1/4
v -4 1.00001 1
v -4 1 1
v -4 0 1
v -4 2 0
v -4 1 0
v -4 0 0
usemtl M_City_Road_Voxel_png
f 217/6/5 218/8/5 215/7/5 214/5/5
f 216/1/5 217/3/5 214/10/5 213/9/5
v -2 1 1
v -2 1 1
v -2 0 1
v -2 2 0
v -2 1 0
v -2 0 0
usemtl M_City_Road_Voxel_png
f 220/5/6 221/7/6 224/8/6 223/6/6
f 219/9/6 220/10/6 223/3/6 222/1/6
o RAMP-EDGE-2
v -2 2 0
v -2 2 1
v -1 2 0
v -1 2 1
v 0 2 0
v 0 2 1
v 1 2 0
v 1 2 1
v 2 2 0
v 2 2 1
v 3 2 0
v 3 2 1
v 4 2 0
v 4 2 1
v 5 2 0
v 5 2 1
usemtl M_City_Road_Voxel_png
f 225/3/2 226/1/2 228/2/2 227/4/2
f 227/3/2 228/1/2 230/2/2 229/4/2
f 229/3/2 230/1/2 232/2/2 231/4/2
f 231/3/2 232/1/2 234/2/2 233/4/2
f 233/3/2 234/1/2 236/2/2 235/4/2
f 235/3/2 236/1/2 238/2/2 237/4/2
f 237/3/2 238/1/2 240/2/2 239/4/2
v -2 0 0
v -2 0 1
v -1 0 0
v -1 0 1
v 0 0 0
v 0 0 1
v 1 0 0
v 1 0 1
v 2 0 0
v 2 0 1
v 3 0 0
v 3 0 1
v 4 0 0
v 4 0 1
v 5 0 0
v 5 0 1
usemtl M_City_Road_Voxel_png
f 243/8/1 244/6/1 242/5/1 241/7/1
f 245/8/1 246/6/1 244/5/1 243/7/1
f 247/8/1 248/6/1 246/5/1 245/7/1
f 249/8/1 250/6/1 248/5/1 247/7/1
f 251/8/1 252/6/1 250/5/1 249/7/1
f 253/8/1 254/6/1 252/5/1 251/7/1
f 255/8/1 256/6/1 254/5/1 253/7/1
v -2 2 0
v -2 1 0
v -2 0 0
v -1 2 0
v -1 1 0
v -1 0 0
v 0 2 0
v 0 1 0
v 0 0 0
v 1 2 0
v 1 1 0
v 1 0 0
v 2 2 0
v 2 1 0
v 2 0 0
v 3 2 0
v 3 1 0
v 3 0 0
v 4 2 0
v 4 1 0
v 4 0 0
v 5 2 0
v 5 1 0
v 5 0 0
usemtl M_City_Road_Voxel_png
f 261/6/3 262/8/3 259/7/3 258/5/3
f 264/6/3 265/8/3 262/7/3 261/5/3
f 267/6/3 268/8/3 265/7/3 264/5/3
f 270/6/3 271/8/3 268/7/3 267/5/3
f 273/6/3 274/8/3 271/7/3 270/5/3
f 276/6/3 277/8/3 274/7/3 273/5/3
f 279/6/3 280/8/3 277/7/3 276/5/3
f 260/1/3 261/3/3 258/10/3 257/9/3
f 263/1/3 264/3/3 261/10/3 260/9/3
f 266/1/3 267/3/3 264/10/3 263/9/3
f 269/1/3 270/3/3 267/10/3 266/9/3
f 272/1/3 273/3/3 270/10/3 269/9/3
f 275/1/3 276/3/3 273/10/3 272/9/3
f 278/1/3 279/3/3 276/10/3 275/9/3
v -2 2 1
v -2 1 1
v -2 0 1
v -1 2 1
v -1 1 1
v -1 0 1
v 0 2 1
v 0 1 1
v 0 0 1
v 1 2 1
v 1 1 1
v 1 0 1
v 2 2 1
v 2 1 1
v 2 0 1
v 3 2 1
v 3 1 1
v 3 0 1
v 4 2 1
v 4 1 1
v 4 0 1
v 5 2 1
v 5 1 1
v 5 0 1
usemtl M_City_Road_Voxel_png
f 282/5/4 283/7/4 286/8/4 285/6/4
f 285/5/4 286/7/4 289/8/4 288/6/4
f 288/5/4 289/7/4 292/8/4 291/6/4
f 291/5/4 292/7/4 295/8/4 294/6/4
f 294/5/4 295/7/4 298/8/4 297/6/4
f 297/5/4 298/7/4 301/8/4 300/6/4
f 300/5/4 301/7/4 304/8/4 303/6/4
f 281/9/4 282/10/4 285/3/4 284/1/4
f 284/9/4 285/10/4 288/3/4 287/1/4
f 287/9/4 288/10/4 291/3/4 290/1/4
f 290/9/4 291/10/4 294/3/4 293/1/4
f 293/9/4 294/10/4 297/3/4 296/1/4
f 296/9/4 297/10/4 300/3/4 299/1/4
f 299/9/4 300/10/4 303/3/4 302/1/4
v -2 2 1
v -2 1 1
v -2 0 1
v -2 2 0
v -2 1 0
v -2 0 0
usemtl M_City_Road_Voxel_png
f 309/6/5 310/8/5 307/7/5 306/5/5
f 308/1/5 309/3/5 306/10/5 305/9/5
v 5 2 1
v 5 1 1
v 5 0 1
v 5 2 0
v 5 1 0
v 5 0 0
usemtl M_City_Road_Voxel_png
f 312/5/6 313/7/6 316/8/6 315/6/6
f 311/9/6 312/10/6 315/3/6 314/1/6
